<svg id="svg" version="1.1" xmlns="http://www.w3.org/2000/svg" xmlns:xlink="http://www.w3.org/1999/xlink" width="400" height="400" viewBox="0, 0, 400,400"><g id="svgg"><path id="path0" d="M182.600 3.184 C 179.960 3.322,177.440 3.627,177.000 3.863 C 176.560 4.098,174.135 4.411,171.611 4.558 C 168.758 4.724,166.697 5.038,166.163 5.387 C 165.691 5.697,163.706 6.072,161.752 6.222 C 159.799 6.372,157.660 6.733,157.000 7.024 C 156.340 7.315,154.720 7.675,153.400 7.824 C 152.080 7.974,150.701 8.357,150.336 8.677 C 149.970 8.997,148.710 9.410,147.536 9.594 C 146.361 9.777,144.680 10.206,143.800 10.546 C 142.920 10.887,141.819 11.173,141.354 11.182 C 140.889 11.192,140.050 11.560,139.491 12.000 C 138.931 12.440,138.031 12.800,137.491 12.800 C 136.950 12.800,136.079 13.137,135.554 13.549 C 135.029 13.961,133.822 14.429,132.872 14.589 C 131.922 14.749,131.053 15.117,130.942 15.406 C 130.831 15.696,129.863 16.054,128.790 16.201 C 127.718 16.349,126.641 16.710,126.397 17.003 C 126.153 17.297,125.199 17.665,124.277 17.820 C 123.355 17.975,122.171 18.439,121.646 18.851 C 121.121 19.263,120.381 19.600,120.000 19.600 C 119.619 19.600,118.850 19.960,118.291 20.400 C 117.731 20.840,117.011 21.200,116.691 21.200 C 116.370 21.200,115.679 21.522,115.154 21.916 C 114.629 22.310,113.750 22.848,113.200 23.113 C 112.650 23.378,111.930 23.761,111.600 23.965 C 110.236 24.809,107.688 25.917,106.526 26.172 C 105.842 26.323,104.966 26.795,104.579 27.223 C 104.193 27.650,103.707 28.000,103.501 28.000 C 103.295 28.000,102.669 28.360,102.109 28.800 C 101.550 29.240,100.816 29.600,100.480 29.600 C 100.143 29.600,99.582 29.877,99.234 30.215 C 98.885 30.553,97.700 31.401,96.600 32.100 C 95.500 32.798,94.468 33.581,94.306 33.839 C 94.144 34.097,93.379 34.428,92.606 34.573 C 91.833 34.718,91.200 34.991,91.200 35.180 C 91.200 35.369,90.165 36.104,88.900 36.812 C 87.635 37.521,86.330 38.340,86.000 38.632 C 85.670 38.924,84.995 39.531,84.500 39.981 C 84.005 40.432,83.454 40.800,83.275 40.800 C 83.097 40.800,82.594 41.132,82.158 41.539 C 81.301 42.337,79.850 43.174,77.531 44.207 C 76.723 44.568,75.963 45.118,75.843 45.431 C 75.723 45.744,75.362 46.000,75.040 46.000 C 74.717 46.000,74.346 46.341,74.214 46.757 C 74.082 47.173,73.619 47.606,73.187 47.719 C 72.754 47.833,72.400 48.191,72.400 48.516 C 72.400 48.841,72.040 49.201,71.600 49.316 C 71.160 49.431,70.800 49.812,70.800 50.163 C 70.800 50.513,70.540 50.800,70.223 50.800 C 69.905 50.800,69.410 51.120,69.123 51.510 C 68.835 51.901,67.340 53.276,65.800 54.565 C 64.260 55.855,62.831 57.200,62.625 57.554 C 62.046 58.547,59.062 61.177,58.500 61.189 C 58.225 61.195,58.000 61.487,58.000 61.837 C 58.000 62.188,57.683 62.558,57.295 62.659 C 56.907 62.761,56.232 63.405,55.795 64.091 C 55.358 64.777,54.730 65.759,54.400 66.272 C 54.070 66.786,53.485 67.307,53.100 67.430 C 52.715 67.553,52.400 67.868,52.400 68.131 C 52.400 68.393,52.040 68.832,51.600 69.107 C 51.160 69.382,50.800 69.875,50.800 70.203 C 50.800 70.532,50.524 70.800,50.187 70.800 C 49.851 70.800,49.457 71.115,49.314 71.500 C 49.170 71.885,48.726 72.435,48.326 72.723 C 47.927 73.010,47.600 73.505,47.600 73.823 C 47.600 74.140,47.330 74.400,47.000 74.400 C 46.670 74.400,46.400 74.563,46.400 74.763 C 46.400 74.963,45.590 76.121,44.600 77.336 C 43.610 78.552,42.800 79.713,42.800 79.917 C 42.800 80.120,42.081 80.898,41.202 81.644 C 40.323 82.390,39.603 83.193,39.602 83.428 C 39.601 83.663,39.150 84.247,38.600 84.725 C 38.050 85.203,37.600 85.950,37.600 86.383 C 37.600 86.817,37.240 87.365,36.800 87.600 C 36.360 87.835,36.000 88.268,36.000 88.560 C 36.000 88.853,35.640 89.550,35.200 90.109 C 34.760 90.669,34.400 91.392,34.400 91.716 C 34.400 92.041,34.059 92.396,33.642 92.505 C 33.189 92.623,32.772 93.216,32.605 93.978 C 32.451 94.680,32.072 95.351,31.762 95.470 C 31.453 95.588,31.200 95.938,31.200 96.247 C 31.200 96.555,30.841 97.115,30.402 97.491 C 29.963 97.867,29.493 98.765,29.357 99.487 C 29.217 100.236,28.868 100.800,28.545 100.800 C 28.234 100.800,27.874 101.331,27.744 101.980 C 27.614 102.628,27.169 103.466,26.754 103.842 C 26.339 104.217,26.000 104.835,26.000 105.215 C 26.000 105.596,25.640 106.001,25.200 106.116 C 24.650 106.260,24.400 106.662,24.400 107.399 C 24.400 107.990,24.040 108.931,23.600 109.491 C 23.160 110.050,22.800 110.816,22.800 111.192 C 22.800 111.568,22.440 112.202,22.000 112.600 C 21.560 112.998,21.200 113.823,21.200 114.433 C 21.200 115.044,20.923 115.819,20.585 116.157 C 20.247 116.495,19.710 117.396,19.392 118.159 C 19.073 118.921,18.645 119.649,18.441 119.775 C 18.237 119.901,17.941 120.765,17.784 121.695 C 17.627 122.625,17.233 123.580,16.909 123.817 C 16.584 124.055,16.224 125.093,16.107 126.124 C 15.991 127.156,15.768 128.000,15.612 128.000 C 15.159 128.000,14.401 129.938,14.391 131.119 C 14.386 131.713,14.030 132.650,13.600 133.200 C 13.170 133.750,12.814 134.712,12.809 135.337 C 12.804 135.962,12.456 136.911,12.036 137.444 C 11.617 137.978,11.150 139.312,10.999 140.408 C 10.833 141.614,10.523 142.400,10.214 142.400 C 9.873 142.400,9.609 143.358,9.420 145.279 C 9.238 147.126,8.918 148.318,8.528 148.603 C 8.135 148.891,7.844 149.993,7.705 151.724 C 7.484 154.480,7.324 154.757,6.449 153.900 C 6.036 153.496,5.951 153.745,6.006 155.200 C 6.196 160.222,6.047 161.306,5.200 161.084 C 4.431 160.883,4.400 161.072,4.400 165.906 C 4.400 170.023,4.280 171.070,3.739 171.668 C 3.201 172.262,3.049 173.538,2.923 178.499 C 2.784 183.968,2.353 189.637,1.822 193.000 C 1.254 196.595,1.613 211.067,2.296 212.143 C 2.456 212.394,2.685 215.948,2.805 220.041 C 2.982 226.045,3.145 227.602,3.649 228.106 C 4.321 228.778,4.995 236.174,4.543 237.900 C 4.355 238.615,4.473 238.800,5.117 238.800 C 5.845 238.800,5.957 239.144,6.209 242.175 C 6.384 244.274,6.679 245.621,6.989 245.740 C 7.263 245.846,7.604 246.809,7.746 247.880 C 7.889 248.952,8.264 250.199,8.580 250.650 C 8.897 251.102,9.279 252.445,9.429 253.636 C 9.580 254.826,9.934 256.070,10.215 256.400 C 10.496 256.730,10.854 258.037,11.010 259.306 C 11.166 260.575,11.632 262.041,12.047 262.569 C 12.467 263.103,12.800 264.162,12.800 264.963 C 12.800 265.867,13.097 266.697,13.600 267.200 C 14.040 267.640,14.400 268.442,14.400 268.981 C 14.400 270.133,15.182 272.000,15.664 272.000 C 15.849 272.000,16.000 272.630,16.000 273.400 C 16.000 274.253,16.304 275.104,16.778 275.578 C 17.205 276.005,17.678 277.010,17.828 277.810 C 17.978 278.609,18.348 279.359,18.651 279.475 C 18.953 279.591,19.200 279.983,19.200 280.346 C 19.200 280.709,19.650 281.852,20.200 282.885 C 20.750 283.918,21.200 285.017,21.200 285.328 C 21.200 285.638,21.560 286.350,22.000 286.909 C 22.440 287.469,22.800 288.185,22.800 288.501 C 22.800 288.817,23.160 289.402,23.600 289.800 C 24.040 290.198,24.400 290.848,24.400 291.243 C 24.400 292.181,25.234 294.000,25.664 294.000 C 25.849 294.000,26.000 294.428,26.000 294.951 C 26.000 295.474,26.280 296.135,26.623 296.419 C 26.966 296.704,27.497 297.536,27.803 298.268 C 28.109 299.001,28.534 299.600,28.748 299.600 C 28.962 299.600,29.255 300.141,29.401 300.803 C 29.546 301.465,30.010 302.191,30.433 302.417 C 30.872 302.652,31.200 303.252,31.200 303.818 C 31.200 304.362,31.560 305.116,32.000 305.493 C 32.440 305.870,32.800 306.401,32.800 306.675 C 32.800 306.948,33.160 307.365,33.600 307.600 C 34.040 307.835,34.400 308.222,34.400 308.458 C 34.400 309.066,36.866 312.800,37.267 312.800 C 37.450 312.800,37.600 313.078,37.600 313.418 C 37.600 313.758,38.050 314.486,38.600 315.036 C 39.150 315.586,39.600 316.298,39.600 316.618 C 39.600 316.938,39.784 317.200,40.009 317.200 C 40.233 317.200,40.622 317.650,40.873 318.200 C 41.123 318.750,41.552 319.200,41.825 319.200 C 42.098 319.200,42.502 319.716,42.722 320.348 C 42.942 320.979,43.769 322.143,44.561 322.934 C 45.352 323.726,46.000 324.549,46.000 324.764 C 46.000 324.979,46.327 325.390,46.726 325.677 C 47.126 325.965,47.570 326.515,47.714 326.900 C 47.857 327.285,48.251 327.600,48.587 327.600 C 48.924 327.600,49.200 327.887,49.200 328.237 C 49.200 328.588,49.560 328.969,50.000 329.084 C 50.440 329.199,50.800 329.534,50.800 329.828 C 50.800 330.746,57.810 338.065,63.608 343.200 C 65.222 344.630,66.936 346.205,67.417 346.700 C 67.898 347.195,68.496 347.600,68.746 347.600 C 68.996 347.600,69.200 347.870,69.200 348.200 C 69.200 348.530,69.419 348.800,69.686 348.800 C 69.953 348.800,70.538 349.161,70.986 349.603 C 73.002 351.591,75.752 354.000,76.005 354.000 C 76.259 354.000,77.625 355.103,79.234 356.608 C 79.582 356.933,80.071 357.200,80.319 357.200 C 80.568 357.200,80.963 357.558,81.197 357.995 C 81.432 358.433,82.068 358.902,82.612 359.039 C 83.155 359.175,83.600 359.451,83.600 359.652 C 83.600 359.853,84.068 360.230,84.639 360.491 C 85.211 360.751,86.325 361.556,87.114 362.279 C 87.903 363.002,88.910 363.708,89.351 363.848 C 89.792 363.988,91.035 364.799,92.113 365.651 C 93.190 366.503,94.319 367.200,94.620 367.200 C 94.922 367.200,95.491 367.545,95.884 367.968 C 96.278 368.390,97.082 368.856,97.671 369.004 C 98.260 369.151,98.833 369.509,98.944 369.798 C 99.055 370.088,99.679 370.442,100.331 370.585 C 100.984 370.728,101.834 371.195,102.221 371.623 C 102.607 372.050,103.183 372.400,103.499 372.400 C 103.815 372.400,104.531 372.760,105.091 373.200 C 105.650 373.640,106.449 374.000,106.866 374.000 C 107.284 374.000,107.726 374.263,107.850 374.585 C 107.973 374.906,108.462 375.285,108.937 375.426 C 110.449 375.874,114.189 377.783,114.500 378.265 C 114.665 378.521,115.523 378.852,116.405 379.001 C 117.375 379.165,118.172 379.574,118.419 380.036 C 118.705 380.570,119.260 380.800,120.261 380.800 C 121.496 380.800,121.665 380.910,121.484 381.600 C 121.294 382.329,121.472 382.400,123.484 382.400 C 125.596 382.400,125.685 382.442,125.511 383.353 C 125.340 384.248,125.422 384.294,126.840 384.104 C 129.680 383.723,131.520 384.759,129.500 385.601 C 128.829 385.881,129.261 385.957,131.200 385.900 C 134.028 385.817,134.889 386.104,134.540 387.013 C 134.310 387.611,135.404 387.792,138.138 387.608 C 139.112 387.543,139.239 387.648,139.018 388.342 C 138.791 389.059,138.959 389.166,140.481 389.276 C 141.687 389.363,142.200 389.579,142.200 390.000 C 142.200 390.485,142.959 390.622,146.173 390.715 C 149.589 390.815,150.223 390.941,150.696 391.615 C 151.165 392.285,151.720 392.400,154.489 392.400 C 156.274 392.400,157.622 392.511,157.486 392.648 C 156.591 393.542,158.596 394.000,163.407 394.000 C 167.987 394.000,168.535 394.077,169.136 394.801 C 169.726 395.514,170.469 395.632,175.800 395.866 C 180.603 396.077,181.893 396.257,182.268 396.765 C 182.986 397.740,214.743 397.727,215.858 396.751 C 216.418 396.261,217.776 396.049,221.400 395.886 C 226.553 395.653,227.600 395.429,227.600 394.557 C 227.600 394.115,228.493 394.000,231.912 394.000 C 235.765 394.000,236.285 393.915,236.800 393.200 C 237.316 392.484,237.835 392.400,241.726 392.400 C 245.738 392.400,246.091 392.338,246.284 391.600 C 246.476 390.865,246.830 390.800,250.651 390.800 C 254.313 390.800,254.889 390.705,255.493 390.000 C 256.003 389.405,256.673 389.200,258.113 389.200 C 259.300 389.200,259.952 389.046,259.800 388.800 C 259.664 388.580,259.743 388.400,259.976 388.400 C 260.209 388.400,260.400 388.580,260.400 388.800 C 260.400 389.427,261.088 389.268,261.353 388.579 C 261.489 388.223,261.422 388.063,261.195 388.203 C 260.978 388.337,260.800 388.257,260.800 388.024 C 260.800 387.772,261.815 387.595,263.300 387.587 C 265.465 387.576,265.706 387.503,265.100 387.043 C 264.000 386.208,264.265 385.934,266.100 386.007 C 268.980 386.121,270.945 386.012,270.686 385.752 C 270.178 385.245,271.591 384.400,272.948 384.400 C 273.721 384.400,274.481 384.192,274.638 383.938 C 274.815 383.652,274.748 383.585,274.462 383.762 C 274.170 383.942,274.000 383.744,274.000 383.224 C 274.000 382.500,274.247 382.400,276.027 382.400 C 277.872 382.400,278.031 382.328,277.800 381.600 C 277.599 380.967,277.728 380.800,278.420 380.800 C 279.096 380.800,279.246 380.980,279.084 381.600 C 278.969 382.040,279.038 382.400,279.237 382.400 C 279.437 382.400,279.600 382.040,279.600 381.600 C 279.600 380.919,279.867 380.800,281.400 380.800 C 282.667 380.800,283.437 380.563,284.000 380.000 C 284.440 379.560,285.160 379.200,285.600 379.200 C 286.040 379.200,286.760 378.840,287.200 378.400 C 287.640 377.960,288.450 377.600,289.000 377.600 C 290.092 377.600,290.266 377.226,289.520 376.480 C 288.844 375.804,290.050 375.823,290.779 376.500 C 291.210 376.900,291.261 376.900,291.035 376.500 C 290.783 376.053,291.482 375.792,292.500 375.953 C 292.665 375.979,292.800 375.640,292.800 375.200 C 292.800 374.553,293.067 374.400,294.191 374.400 C 295.232 374.400,295.746 374.149,296.235 373.403 C 296.594 372.855,297.048 372.506,297.244 372.627 C 297.440 372.748,297.600 372.387,297.600 371.824 C 297.600 370.896,297.750 370.800,299.200 370.800 C 300.533 370.800,300.800 370.667,300.800 370.000 C 300.800 369.305,301.076 369.196,302.900 369.173 C 304.706 369.150,304.874 369.085,304.100 368.712 C 302.785 368.077,302.999 367.600,304.600 367.600 C 305.733 367.600,306.000 367.448,306.000 366.800 C 306.000 366.131,306.267 366.000,307.627 366.000 C 309.075 366.000,309.226 365.911,308.999 365.196 C 308.789 364.536,308.965 364.347,309.972 364.146 C 310.647 364.011,311.200 363.672,311.200 363.393 C 311.200 362.826,312.072 362.400,313.233 362.400 C 313.733 362.400,314.000 362.122,314.000 361.600 C 314.000 361.055,314.267 360.800,314.837 360.800 C 315.338 360.800,315.759 360.479,315.884 360.000 C 316.041 359.399,316.430 359.200,317.447 359.200 C 318.869 359.200,319.119 358.879,318.320 358.080 C 317.947 357.707,317.966 357.600,318.406 357.600 C 318.717 357.600,319.338 357.241,319.786 356.802 C 321.660 354.966,323.262 353.923,323.936 354.099 C 324.459 354.236,324.644 354.062,324.626 353.450 C 324.612 352.990,324.780 352.595,325.000 352.572 C 325.809 352.489,326.790 351.908,326.611 351.618 C 326.510 351.455,326.871 351.083,327.414 350.793 C 327.956 350.502,328.400 350.025,328.400 349.732 C 328.400 349.440,328.565 349.200,328.766 349.200 C 329.184 349.200,330.885 347.828,332.112 346.500 C 332.570 346.005,333.170 345.600,333.445 345.600 C 333.721 345.600,334.060 345.240,334.200 344.800 C 334.340 344.360,334.802 344.000,335.227 344.000 C 335.717 344.000,336.000 343.725,336.000 343.247 C 336.000 342.830,336.357 342.400,336.800 342.284 C 337.240 342.169,337.600 341.768,337.600 341.393 C 337.600 340.833,337.845 340.757,338.969 340.968 C 340.039 341.168,340.453 341.062,340.869 340.481 C 341.161 340.073,341.760 339.525,342.200 339.264 C 342.919 338.837,342.889 338.814,341.900 339.038 C 340.969 339.248,340.800 339.157,340.800 338.443 C 340.800 337.867,341.053 337.600,341.600 337.600 C 342.133 337.600,342.400 337.333,342.400 336.800 C 342.400 336.350,342.667 336.000,343.010 336.000 C 343.345 336.000,343.791 335.550,344.000 335.000 C 344.209 334.450,344.634 334.000,344.943 334.000 C 345.253 334.000,345.607 333.617,345.729 333.149 C 345.898 332.505,346.184 332.342,346.907 332.480 C 347.728 332.637,347.838 332.531,347.685 331.731 C 347.544 330.993,347.683 330.800,348.353 330.800 C 348.977 330.800,349.200 330.551,349.200 329.855 C 349.200 329.056,349.359 328.941,350.230 329.108 C 350.953 329.246,351.236 329.141,351.182 328.752 C 350.955 327.119,351.238 326.000,351.880 326.000 C 352.409 326.000,352.453 326.107,352.080 326.480 C 351.377 327.183,351.482 328.020,352.237 327.731 C 352.706 327.551,352.834 327.081,352.726 325.943 C 352.579 324.397,353.625 323.619,354.131 324.900 C 354.239 325.175,354.319 324.950,354.307 324.400 C 354.273 322.706,354.379 322.400,355.000 322.400 C 355.330 322.400,355.600 322.152,355.600 321.849 C 355.600 320.951,356.578 320.338,357.130 320.890 C 357.490 321.250,357.600 321.165,357.600 320.527 C 357.600 320.030,357.923 319.609,358.400 319.484 C 359.036 319.318,359.200 318.938,359.200 317.637 C 359.200 316.463,359.366 316.000,359.789 316.000 C 360.117 316.000,360.526 315.425,360.714 314.701 C 360.947 313.800,361.287 313.402,361.825 313.401 C 362.437 313.400,362.575 313.162,362.480 312.268 C 362.388 311.406,362.555 311.084,363.180 310.921 C 363.631 310.803,364.000 310.468,364.000 310.176 C 364.000 309.884,364.334 309.410,364.743 309.123 C 365.151 308.835,365.618 308.179,365.781 307.663 C 365.992 306.995,366.295 306.784,366.839 306.926 C 367.497 307.098,367.600 306.900,367.600 305.459 C 367.600 304.226,367.808 303.663,368.400 303.293 C 368.847 303.013,369.200 302.360,369.200 301.811 C 369.200 301.238,369.533 300.650,370.000 300.400 C 370.513 300.126,370.800 299.562,370.800 298.833 C 370.800 298.061,371.039 297.631,371.539 297.500 C 371.978 297.385,372.381 296.797,372.529 296.053 C 372.771 294.844,373.993 294.221,374.006 295.300 C 374.010 295.641,374.106 295.662,374.306 295.366 C 374.468 295.127,374.960 294.720,375.400 294.460 C 376.111 294.042,376.073 294.018,375.065 294.247 C 374.043 294.479,373.944 294.410,374.065 293.552 C 374.154 292.922,374.504 292.557,375.100 292.472 C 375.854 292.365,376.000 292.096,376.000 290.819 C 376.000 289.307,377.313 288.182,377.723 289.342 C 377.812 289.594,377.798 288.855,377.692 287.700 C 377.536 286.008,377.616 285.600,378.102 285.600 C 378.761 285.600,379.186 284.453,379.195 282.653 C 379.199 281.705,379.338 281.543,380.000 281.716 C 380.728 281.906,380.800 281.728,380.800 279.739 C 380.800 278.381,380.952 277.647,381.201 277.800 C 381.669 278.090,382.400 276.375,382.400 274.988 C 382.400 274.438,382.741 273.846,383.200 273.600 C 383.792 273.283,384.000 272.762,384.000 271.600 C 384.000 270.438,384.208 269.917,384.800 269.600 C 385.395 269.282,385.600 268.762,385.600 267.577 C 385.600 266.270,385.778 265.902,386.587 265.533 C 387.131 265.285,387.475 264.921,387.352 264.723 C 386.934 264.047,387.653 260.400,388.204 260.400 C 388.495 260.400,388.824 260.625,388.935 260.900 C 389.046 261.175,389.151 259.984,389.168 258.253 C 389.198 255.311,389.252 255.120,390.000 255.316 C 390.758 255.514,390.800 255.328,390.800 251.763 C 390.800 248.267,390.857 248.000,391.600 248.000 C 392.337 248.000,392.400 247.733,392.400 244.600 C 392.400 241.467,392.463 241.200,393.200 241.200 C 393.952 241.200,394.000 240.933,394.000 236.786 C 394.000 232.546,394.030 232.388,394.774 232.786 C 396.004 233.444,396.032 233.365,395.757 230.059 C 395.422 226.046,395.894 220.534,396.518 221.158 C 396.761 221.401,397.076 221.600,397.218 221.600 C 397.359 221.600,397.436 212.417,397.388 201.192 C 397.340 189.968,397.434 180.702,397.597 180.602 C 397.876 180.429,397.804 179.422,397.356 177.251 C 397.175 176.373,397.122 176.354,396.647 177.004 C 396.024 177.855,396.058 178.141,395.978 171.273 C 395.929 167.046,395.392 162.010,395.234 164.300 C 395.215 164.575,394.919 164.800,394.575 164.800 C 394.057 164.800,393.958 164.268,394.003 161.700 C 394.100 156.092,394.094 156.050,393.200 156.284 C 392.445 156.482,392.400 156.296,392.400 152.998 C 392.400 149.911,392.329 149.561,391.790 150.008 C 390.928 150.723,390.880 150.581,390.732 146.901 C 390.622 144.157,390.489 143.604,389.939 143.602 C 389.431 143.601,389.215 143.054,389.003 141.229 C 388.842 139.842,388.507 138.773,388.196 138.654 C 387.894 138.538,387.543 137.485,387.385 136.219 C 387.232 134.993,386.767 133.558,386.353 133.031 C 385.939 132.505,385.600 131.519,385.600 130.840 C 385.600 130.040,385.319 129.431,384.800 129.107 C 384.277 128.781,384.000 128.174,384.000 127.358 C 384.000 126.670,383.666 125.679,383.258 125.154 C 382.850 124.629,382.390 123.516,382.236 122.679 C 382.082 121.842,381.717 121.066,381.425 120.954 C 381.133 120.842,380.775 120.001,380.628 119.086 C 380.482 118.170,380.132 117.146,379.850 116.810 C 379.568 116.475,379.120 115.435,378.853 114.500 C 378.586 113.565,378.202 112.800,377.999 112.800 C 377.797 112.800,377.442 112.099,377.211 111.241 C 376.980 110.384,376.523 109.579,376.196 109.454 C 375.868 109.328,375.600 108.893,375.600 108.488 C 375.600 108.083,375.240 107.364,374.800 106.892 C 374.360 106.420,374.000 105.766,374.000 105.439 C 374.000 105.113,373.664 104.610,373.254 104.323 C 372.843 104.035,372.382 103.230,372.229 102.533 C 372.076 101.837,371.692 101.167,371.376 101.046 C 371.059 100.924,370.800 100.459,370.800 100.013 C 370.800 99.566,370.485 98.883,370.100 98.495 C 369.715 98.106,369.179 97.296,368.909 96.695 C 368.638 96.093,368.241 95.600,368.027 95.600 C 367.812 95.600,367.521 94.987,367.381 94.237 C 367.218 93.368,366.848 92.801,366.362 92.674 C 365.943 92.565,365.600 92.138,365.600 91.726 C 365.600 91.315,365.240 90.670,364.800 90.293 C 364.360 89.916,364.000 89.252,364.000 88.818 C 364.000 88.384,363.640 87.835,363.200 87.600 C 362.760 87.365,362.400 86.915,362.400 86.600 C 362.400 86.285,362.055 85.843,361.633 85.617 C 361.210 85.391,360.746 84.665,360.601 84.003 C 360.455 83.341,360.166 82.800,359.958 82.800 C 359.750 82.800,359.409 82.350,359.200 81.800 C 358.991 81.250,358.541 80.800,358.200 80.800 C 357.859 80.800,357.409 80.350,357.200 79.800 C 356.991 79.250,356.650 78.800,356.442 78.800 C 356.234 78.800,355.945 78.259,355.799 77.597 C 355.654 76.935,355.190 76.209,354.767 75.983 C 354.345 75.757,354.000 75.308,354.000 74.986 C 354.000 74.664,353.726 74.400,353.390 74.400 C 353.055 74.400,352.609 73.950,352.400 73.400 C 352.191 72.850,351.745 72.400,351.410 72.400 C 351.074 72.400,350.800 72.136,350.800 71.814 C 350.800 71.492,350.440 71.035,350.000 70.800 C 349.560 70.565,349.200 70.141,349.200 69.858 C 349.200 69.575,348.750 68.953,348.200 68.475 C 347.650 67.997,347.200 67.377,347.200 67.099 C 347.200 66.820,346.840 66.368,346.400 66.093 C 345.960 65.818,345.600 65.325,345.600 64.997 C 345.600 64.668,345.313 64.400,344.963 64.400 C 344.612 64.400,344.233 64.046,344.119 63.613 C 344.006 63.181,343.573 62.718,343.157 62.586 C 342.741 62.454,342.400 62.100,342.400 61.800 C 342.400 61.500,342.059 61.146,341.643 61.014 C 341.227 60.882,340.794 60.419,340.681 59.987 C 340.567 59.554,340.188 59.200,339.837 59.200 C 339.487 59.200,339.200 58.926,339.200 58.590 C 339.200 58.255,338.750 57.809,338.200 57.600 C 337.650 57.391,337.200 57.030,337.200 56.797 C 337.200 56.565,336.885 56.261,336.500 56.122 C 336.115 55.982,335.133 55.223,334.317 54.434 C 331.407 51.619,330.591 50.924,329.900 50.676 C 329.515 50.538,329.200 50.149,329.200 49.813 C 329.200 49.467,328.852 49.200,328.400 49.200 C 327.950 49.200,327.600 48.933,327.600 48.590 C 327.600 48.255,327.175 47.818,326.655 47.621 C 326.135 47.423,325.600 46.977,325.467 46.631 C 325.334 46.284,324.994 45.997,324.713 45.993 C 324.431 45.989,323.776 45.539,323.258 44.993 C 322.740 44.447,322.065 44.000,321.758 44.000 C 321.451 44.000,321.200 43.816,321.200 43.591 C 321.200 43.367,320.750 42.978,320.200 42.727 C 319.650 42.477,319.200 42.030,319.200 41.736 C 319.200 41.441,318.958 41.200,318.662 41.200 C 318.366 41.200,317.601 40.750,316.962 40.200 C 316.323 39.651,315.506 39.201,315.147 39.200 C 314.787 39.200,314.399 38.840,314.284 38.400 C 314.169 37.960,313.788 37.600,313.437 37.600 C 313.087 37.600,312.440 37.240,312.000 36.800 C 311.560 36.360,310.846 36.000,310.414 36.000 C 309.982 36.000,309.435 35.640,309.200 35.200 C 308.955 34.742,308.362 34.400,307.814 34.400 C 307.288 34.400,306.543 34.086,306.160 33.703 C 305.356 32.899,304.376 32.290,302.400 31.368 C 301.630 31.008,300.864 30.477,300.698 30.188 C 300.531 29.899,299.844 29.541,299.171 29.394 C 298.497 29.246,297.853 28.883,297.740 28.587 C 297.626 28.291,297.023 27.937,296.400 27.800 C 295.777 27.663,295.174 27.309,295.060 27.013 C 294.947 26.717,294.257 26.345,293.527 26.186 C 292.797 26.026,291.771 25.559,291.246 25.148 C 290.721 24.737,290.120 24.400,289.909 24.400 C 289.699 24.400,289.069 24.040,288.509 23.600 C 287.950 23.160,287.140 22.800,286.709 22.800 C 286.279 22.800,285.469 22.440,284.909 22.000 C 284.350 21.560,283.581 21.200,283.200 21.200 C 282.819 21.200,282.079 20.863,281.554 20.452 C 281.029 20.041,280.027 19.579,279.328 19.426 C 278.628 19.274,277.856 18.909,277.613 18.616 C 277.370 18.323,276.503 17.960,275.686 17.808 C 274.869 17.656,273.907 17.270,273.550 16.949 C 273.192 16.628,272.202 16.259,271.350 16.129 C 270.497 15.998,269.492 15.625,269.116 15.299 C 268.740 14.972,267.615 14.613,266.616 14.501 C 265.617 14.388,264.800 14.157,264.800 13.987 C 264.800 13.589,262.542 12.800,261.402 12.800 C 260.918 12.800,260.107 12.440,259.600 12.000 C 259.093 11.560,258.207 11.200,257.633 11.200 C 257.058 11.200,255.959 10.863,255.190 10.451 C 254.421 10.039,252.863 9.574,251.726 9.417 C 250.590 9.261,249.570 8.898,249.459 8.610 C 249.336 8.290,248.174 7.978,246.458 7.806 C 244.759 7.635,243.578 7.321,243.458 7.007 C 243.328 6.667,241.988 6.389,239.553 6.196 C 237.446 6.029,235.624 5.681,235.332 5.389 C 235.025 5.082,233.252 4.778,230.909 4.632 C 228.759 4.498,226.460 4.188,225.800 3.943 C 222.946 2.884,197.074 2.429,182.600 3.184 M219.200 17.591 C 220.630 17.810,223.690 18.177,226.000 18.409 C 228.310 18.640,230.900 19.016,231.755 19.245 C 232.610 19.473,234.590 19.909,236.155 20.213 C 242.423 21.430,255.670 24.977,257.456 25.916 C 257.865 26.131,258.955 26.432,259.877 26.585 C 263.005 27.103,263.234 29.156,261.165 38.142 C 260.499 41.034,259.611 45.290,259.192 47.600 C 258.773 49.910,258.172 52.622,257.857 53.626 C 256.083 59.271,256.041 60.512,255.937 110.800 C 255.866 144.748,255.964 158.832,256.274 159.400 C 256.514 159.840,256.923 161.234,257.183 162.498 C 257.980 166.373,262.573 178.116,264.705 181.729 C 265.197 182.563,265.600 183.397,265.600 183.583 C 265.600 183.768,266.250 184.883,267.045 186.060 C 267.839 187.237,268.646 188.608,268.838 189.108 C 271.974 197.278,283.271 203.399,288.800 199.924 C 289.350 199.578,290.284 199.183,290.876 199.046 C 292.147 198.752,296.596 193.984,298.580 190.790 C 303.901 182.225,307.778 174.475,309.427 169.107 C 309.986 167.288,310.800 164.882,311.235 163.760 C 313.000 159.213,313.141 155.321,313.312 106.653 C 313.449 67.833,313.386 60.452,312.910 59.068 C 312.396 57.577,312.409 57.383,313.049 56.915 C 314.166 56.098,314.531 56.259,317.303 58.800 C 318.744 60.120,320.165 61.203,320.461 61.207 C 320.953 61.213,332.596 72.735,337.432 78.000 C 341.216 82.120,346.879 89.274,349.417 93.142 C 350.810 95.264,352.291 97.450,352.709 98.000 C 353.127 98.550,353.990 99.900,354.626 101.000 C 355.262 102.100,356.606 104.260,357.613 105.800 C 358.620 107.340,359.831 109.230,360.305 110.000 C 361.391 111.765,368.400 125.939,368.400 126.371 C 368.400 126.548,368.737 127.121,369.148 127.646 C 369.559 128.171,370.022 129.177,370.176 129.882 C 370.330 130.587,371.061 132.620,371.800 134.400 C 372.539 136.180,373.268 138.213,373.420 138.918 C 373.572 139.623,373.960 140.717,374.283 141.348 C 374.907 142.567,375.632 144.962,376.662 149.200 C 377.010 150.630,377.441 151.983,377.619 152.207 C 377.798 152.432,378.150 153.872,378.402 155.407 C 378.653 156.943,379.094 158.830,379.382 159.600 C 379.670 160.370,380.024 161.990,380.170 163.200 C 380.315 164.410,380.690 166.570,381.002 168.000 C 381.314 169.430,381.755 172.400,381.982 174.600 C 382.208 176.800,382.662 180.580,382.989 183.000 C 383.815 189.103,383.806 208.782,382.975 215.600 C 382.639 218.350,382.206 222.040,382.011 223.800 C 381.558 227.893,379.787 237.894,379.285 239.200 C 379.073 239.750,378.777 241.190,378.628 242.400 C 378.479 243.610,378.021 245.590,377.611 246.800 C 377.200 248.010,376.118 251.430,375.205 254.400 C 374.292 257.370,373.275 260.520,372.945 261.400 C 372.615 262.280,371.809 264.440,371.153 266.200 C 369.926 269.491,369.622 270.201,366.959 275.986 C 361.742 287.320,353.139 301.638,346.440 310.135 C 345.428 311.419,343.747 313.569,342.704 314.913 C 340.453 317.814,340.151 318.171,335.347 323.600 C 333.303 325.910,329.794 329.510,327.550 331.600 C 325.305 333.690,322.797 336.030,321.975 336.800 C 318.876 339.705,318.112 340.358,314.800 342.924 C 312.930 344.373,310.860 345.989,310.200 346.516 C 309.540 347.042,307.470 348.510,305.600 349.777 C 303.730 351.043,301.840 352.388,301.400 352.764 C 300.960 353.140,300.150 353.669,299.600 353.940 C 298.206 354.626,296.982 355.353,296.343 355.874 C 295.413 356.632,284.052 363.200,283.670 363.200 C 283.471 363.200,282.879 363.531,282.354 363.936 C 281.829 364.341,280.860 364.869,280.200 365.109 C 278.376 365.773,273.620 367.780,271.178 368.915 C 268.450 370.184,264.630 371.648,261.000 372.816 C 259.460 373.311,257.390 374.047,256.400 374.451 C 253.613 375.589,240.856 378.876,236.200 379.657 C 234.880 379.878,232.270 380.397,230.400 380.810 C 228.530 381.224,225.650 381.670,224.000 381.802 C 222.350 381.934,219.110 382.329,216.800 382.680 C 211.279 383.517,188.673 383.650,183.600 382.874 C 181.730 382.588,177.860 382.102,175.000 381.795 C 172.140 381.488,168.816 380.958,167.613 380.618 C 166.410 380.278,164.751 380.000,163.927 380.000 C 163.102 380.000,161.657 379.743,160.714 379.429 C 159.771 379.115,157.955 378.669,156.677 378.438 C 155.399 378.207,154.186 377.915,153.981 377.788 C 153.776 377.661,151.491 376.955,148.904 376.220 C 133.505 371.840,117.534 364.788,104.014 356.400 C 102.419 355.410,100.476 354.271,99.697 353.869 C 98.918 353.466,98.024 352.881,97.711 352.569 C 97.399 352.256,96.997 352.000,96.820 352.000 C 96.642 352.000,95.490 351.235,94.260 350.300 C 93.029 349.365,90.803 347.700,89.311 346.600 C 87.820 345.500,86.510 344.496,86.400 344.370 C 86.290 344.243,84.850 343.070,83.200 341.763 C 78.909 338.362,78.218 337.766,74.429 334.200 C 66.818 327.035,60.783 320.617,56.600 315.239 C 54.840 312.976,53.040 310.723,52.600 310.233 C 50.856 308.292,43.964 297.969,43.005 295.864 C 42.689 295.169,41.633 293.340,40.658 291.800 C 38.163 287.857,33.716 278.927,30.797 272.000 C 30.102 270.350,29.204 268.311,28.802 267.469 C 28.183 266.174,25.257 257.349,22.414 248.200 C 22.004 246.880,21.282 243.910,20.811 241.600 C 20.339 239.290,19.691 236.477,19.371 235.349 C 19.051 234.220,18.603 231.790,18.375 229.949 C 18.146 228.107,17.706 224.980,17.395 223.000 C 15.680 212.057,15.601 188.716,17.241 177.800 C 17.473 176.260,17.909 173.290,18.210 171.200 C 18.830 166.905,21.645 154.153,22.582 151.392 C 22.922 150.391,23.200 149.339,23.200 149.055 C 23.200 148.180,25.778 140.461,27.761 135.400 C 33.718 120.193,41.983 104.650,49.458 94.600 C 50.440 93.280,52.099 90.993,53.145 89.518 C 58.919 81.374,76.313 63.200,78.333 63.200 C 79.593 63.200,79.587 62.976,79.601 112.044 C 79.610 140.396,79.766 159.555,79.995 160.400 C 81.355 165.410,82.007 167.616,82.598 169.200 C 82.967 170.190,83.638 171.990,84.089 173.200 C 86.340 179.235,90.131 186.134,95.700 194.324 C 101.996 203.584,115.697 202.492,121.326 192.280 C 121.807 191.408,122.455 190.227,122.767 189.654 C 123.078 189.082,124.126 187.455,125.095 186.039 C 127.039 183.200,129.957 177.348,132.195 171.800 C 133.523 168.506,134.302 166.119,135.844 160.613 C 136.274 159.077,136.400 155.214,136.401 143.613 C 136.402 135.356,136.585 113.930,136.808 96.000 L 137.215 63.400 136.232 57.600 C 135.187 51.439,134.704 48.976,133.719 44.800 C 130.827 32.528,130.708 30.545,132.800 29.522 C 135.969 27.972,138.034 27.138,140.450 26.430 C 141.852 26.020,144.260 25.296,145.800 24.822 C 149.720 23.615,153.914 22.415,155.800 21.961 C 164.006 19.983,171.983 18.602,179.800 17.805 C 183.100 17.468,186.430 17.121,187.200 17.034 C 189.865 16.730,216.611 17.197,219.200 17.591 M397.301 174.600 C 397.305 175.480,397.387 175.793,397.483 175.295 C 397.579 174.798,397.575 174.078,397.475 173.695 C 397.375 173.313,397.296 173.720,397.301 174.600 M54.000 243.166 C 54.000 244.279,54.176 245.956,54.391 246.894 C 54.606 247.832,54.944 249.500,55.143 250.600 C 55.976 255.209,58.441 263.731,60.812 270.200 C 64.067 279.083,64.844 280.804,69.785 290.082 C 72.879 295.892,79.198 305.671,81.592 308.354 C 82.256 309.099,82.800 309.819,82.800 309.954 C 82.802 310.557,88.953 317.364,94.595 323.005 C 105.229 333.639,116.411 341.936,129.200 348.683 C 130.190 349.206,131.450 349.890,132.000 350.205 C 133.784 351.225,138.940 353.600,139.376 353.602 C 139.609 353.604,140.340 353.888,141.000 354.235 C 147.085 357.427,167.764 363.588,172.450 363.605 C 173.192 363.607,174.790 363.884,176.000 364.218 C 182.417 365.995,209.879 365.857,220.200 363.997 C 234.745 361.376,239.466 360.066,252.200 355.114 C 259.256 352.371,267.526 348.262,272.832 344.863 C 277.161 342.091,278.912 340.998,280.097 340.330 C 280.751 339.961,281.671 339.320,282.143 338.905 C 282.614 338.491,283.389 337.892,283.864 337.576 C 288.022 334.804,297.268 326.971,300.117 323.807 C 301.171 322.636,303.511 320.157,305.317 318.299 C 308.993 314.517,309.981 313.385,312.000 310.638 C 312.770 309.591,313.873 308.164,314.450 307.467 C 315.852 305.775,321.586 297.307,321.899 296.466 C 322.035 296.100,322.897 294.630,323.814 293.200 C 325.874 289.987,329.656 283.084,330.389 281.200 C 330.689 280.430,331.082 279.603,331.263 279.363 C 331.445 279.123,332.019 277.683,332.540 276.163 C 333.060 274.643,333.854 272.500,334.304 271.400 C 336.273 266.583,337.856 261.473,340.625 251.000 C 342.578 243.611,341.180 241.732,338.359 247.954 C 337.722 249.360,337.200 250.808,337.200 251.171 C 337.200 251.534,336.840 252.537,336.400 253.400 C 335.960 254.263,335.600 255.131,335.600 255.328 C 335.600 257.074,328.757 270.981,325.036 276.800 C 324.543 277.570,323.254 279.602,322.170 281.317 C 321.087 283.031,319.525 285.320,318.700 286.405 C 317.875 287.489,317.200 288.550,317.200 288.761 C 317.200 289.644,305.110 303.063,300.258 307.566 C 291.578 315.620,280.570 324.131,275.200 326.938 C 274.210 327.456,272.230 328.554,270.800 329.378 C 269.370 330.203,266.490 331.687,264.400 332.676 C 262.310 333.666,259.320 335.089,257.756 335.839 C 255.063 337.130,253.873 337.606,246.200 340.461 C 244.440 341.116,240.840 342.185,238.200 342.837 C 235.560 343.488,232.140 344.377,230.600 344.812 C 229.060 345.247,227.259 345.602,226.597 345.601 C 225.936 345.601,224.766 345.786,223.997 346.014 C 208.871 350.496,175.649 348.689,154.600 342.239 C 150.275 340.914,147.335 339.868,145.921 339.150 C 145.107 338.738,144.238 338.400,143.989 338.400 C 143.105 338.400,129.862 332.247,127.600 330.786 C 127.050 330.430,125.970 329.900,125.200 329.606 C 124.430 329.313,123.340 328.651,122.778 328.136 C 122.216 327.621,121.564 327.200,121.329 327.200 C 121.093 327.200,119.213 326.074,117.150 324.698 C 103.990 315.920,89.686 302.924,82.390 293.117 C 81.524 291.953,80.535 290.640,80.193 290.200 C 77.195 286.347,71.910 278.589,70.440 275.882 C 69.818 274.737,68.339 272.090,67.154 269.999 C 64.357 265.064,63.540 263.394,61.678 258.800 C 59.101 252.439,57.004 246.474,56.265 243.400 C 55.541 240.388,54.000 240.229,54.000 243.166 M358.729 318.533 C 358.806 318.928,358.602 319.200,358.229 319.200 C 357.858 319.200,357.600 318.858,357.600 318.367 C 357.600 317.392,358.535 317.530,358.729 318.533 M340.600 340.028 C 340.600 340.337,340.285 340.650,339.900 340.724 C 339.211 340.857,338.925 340.008,339.475 339.458 C 339.894 339.039,340.600 339.396,340.600 340.028 M298.700 372.083 C 297.966 372.835,298.214 373.033,299.149 372.440 C 299.451 372.249,299.631 371.929,299.549 371.730 C 299.467 371.530,299.085 371.689,298.700 372.083 M283.760 379.665 C 283.572 379.970,281.688 379.821,281.341 379.474 C 281.213 379.346,281.742 379.277,282.516 379.321 C 283.290 379.364,283.850 379.519,283.760 379.665 M270.400 385.000 C 270.126 385.330,269.853 385.600,269.794 385.600 C 269.734 385.600,269.582 385.330,269.455 385.000 C 269.296 384.585,269.482 384.400,270.062 384.400 C 270.760 384.400,270.816 384.499,270.400 385.000 " stroke="none" fill="#100905" fill-rule="evenodd"></path><path id="path1" d="M184.400 0.400 C 184.400 0.650,182.011 0.800,178.033 0.800 C 171.357 0.800,170.400 0.931,170.400 1.843 C 170.400 2.277,169.615 2.400,166.833 2.400 C 162.927 2.400,162.000 2.600,162.000 3.443 C 162.000 3.859,161.368 4.001,159.500 4.004 C 155.724 4.011,153.925 4.401,153.700 5.261 C 153.532 5.902,153.082 6.000,150.287 6.000 C 148.516 6.000,147.185 6.118,147.330 6.263 C 148.040 6.974,146.549 7.600,144.147 7.600 C 142.087 7.600,141.459 7.755,140.907 8.400 C 140.447 8.937,139.727 9.200,138.714 9.200 C 137.640 9.200,137.063 9.430,136.707 10.000 C 136.315 10.627,135.774 10.800,134.200 10.800 C 132.626 10.800,132.085 10.973,131.693 11.600 C 131.352 12.146,130.760 12.400,129.829 12.400 C 128.113 12.400,127.200 12.743,127.200 13.387 C 127.200 13.699,126.384 13.972,125.032 14.112 C 123.591 14.261,122.586 14.614,122.032 15.168 C 121.559 15.641,120.682 16.000,120.000 16.000 C 119.067 16.000,118.800 16.178,118.800 16.800 C 118.800 17.463,118.533 17.600,117.247 17.600 C 116.030 17.600,115.648 17.773,115.484 18.400 C 115.323 19.018,114.938 19.200,113.800 19.200 C 112.662 19.200,112.277 19.382,112.116 20.000 C 111.952 20.627,111.570 20.800,110.353 20.800 C 109.067 20.800,108.800 20.937,108.800 21.600 C 108.800 22.279,108.533 22.400,107.033 22.400 C 104.928 22.400,104.000 22.703,104.000 23.392 C 104.000 23.673,103.289 24.011,102.400 24.154 C 101.520 24.294,100.800 24.591,100.800 24.813 C 100.800 25.035,100.350 25.422,99.800 25.673 C 99.250 25.923,98.800 26.460,98.800 26.864 C 98.800 27.442,98.492 27.600,97.363 27.600 C 96.262 27.600,95.876 27.787,95.716 28.400 C 95.600 28.843,95.170 29.200,94.753 29.200 C 94.267 29.200,94.000 29.483,94.000 30.000 C 94.000 30.664,93.733 30.800,92.427 30.800 C 91.205 30.800,90.797 30.979,90.600 31.600 C 90.460 32.040,89.998 32.400,89.573 32.400 C 89.067 32.400,88.800 32.676,88.800 33.200 C 88.800 33.787,88.533 34.000,87.800 34.000 C 87.250 34.000,86.471 34.329,86.069 34.731 C 85.668 35.132,85.038 35.577,84.669 35.718 C 84.301 35.859,84.000 36.235,84.000 36.552 C 84.000 36.914,83.403 37.231,82.400 37.400 C 81.185 37.605,80.800 37.855,80.800 38.435 C 80.800 38.945,80.521 39.200,79.963 39.200 C 79.462 39.200,79.041 39.521,78.916 40.000 C 78.800 40.443,78.370 40.800,77.953 40.800 C 77.467 40.800,77.200 41.083,77.200 41.600 C 77.200 42.040,76.975 42.414,76.700 42.431 C 75.420 42.509,74.588 42.800,74.211 43.302 C 73.985 43.603,73.485 43.968,73.100 44.112 C 72.715 44.257,72.400 44.735,72.400 45.175 C 72.400 45.735,72.213 45.903,71.776 45.735 C 71.364 45.577,71.080 45.773,70.939 46.311 C 70.822 46.759,70.369 47.219,69.933 47.333 C 69.497 47.447,69.043 47.914,68.924 48.370 C 68.801 48.839,68.379 49.200,67.953 49.200 C 67.467 49.200,67.200 49.483,67.200 50.000 C 67.200 50.533,66.933 50.800,66.400 50.800 C 65.867 50.800,65.600 51.067,65.600 51.600 C 65.600 52.118,65.333 52.400,64.843 52.400 C 64.426 52.400,63.984 52.664,63.860 52.987 C 63.736 53.310,62.997 53.841,62.217 54.167 C 61.033 54.662,60.800 54.960,60.800 55.980 C 60.800 56.942,60.627 57.200,59.982 57.200 C 59.532 57.200,58.740 57.624,58.222 58.142 C 57.704 58.660,56.992 59.194,56.640 59.329 C 56.288 59.464,56.000 59.838,56.000 60.160 C 56.000 60.483,55.659 60.854,55.242 60.987 C 54.772 61.136,54.385 61.755,54.224 62.614 C 54.032 63.634,53.757 64.000,53.182 64.000 C 52.667 64.000,52.400 64.273,52.400 64.800 C 52.400 65.333,52.133 65.600,51.600 65.600 C 51.067 65.600,50.800 65.867,50.800 66.400 C 50.800 66.933,50.533 67.200,50.000 67.200 C 49.483 67.200,49.200 67.467,49.200 67.953 C 49.200 68.379,48.839 68.801,48.370 68.924 C 47.914 69.043,47.443 69.514,47.324 69.970 C 47.204 70.427,46.852 70.800,46.541 70.800 C 46.230 70.800,45.859 71.115,45.718 71.500 C 45.576 71.885,45.229 72.340,44.946 72.511 C 44.664 72.682,44.315 73.447,44.172 74.211 C 43.983 75.214,43.701 75.600,43.155 75.600 C 42.667 75.600,42.400 75.882,42.400 76.400 C 42.400 76.933,42.133 77.200,41.600 77.200 C 41.083 77.200,40.800 77.467,40.800 77.953 C 40.800 78.370,40.443 78.800,40.000 78.916 C 39.560 79.031,39.200 79.400,39.200 79.736 C 39.200 80.071,38.855 80.456,38.432 80.590 C 37.918 80.753,37.576 81.356,37.397 82.417 C 37.224 83.442,36.917 84.000,36.527 84.000 C 36.196 84.000,35.831 84.360,35.716 84.800 C 35.601 85.240,35.277 85.600,34.996 85.600 C 34.394 85.600,34.000 86.483,34.000 87.833 C 34.000 88.451,33.770 88.800,33.363 88.800 C 33.012 88.800,32.633 89.154,32.519 89.587 C 32.406 90.019,31.973 90.482,31.557 90.614 C 30.983 90.796,30.800 91.235,30.800 92.427 C 30.800 93.733,30.664 94.000,30.000 94.000 C 29.483 94.000,29.200 94.267,29.200 94.753 C 29.200 95.170,28.843 95.600,28.400 95.716 C 27.787 95.876,27.600 96.262,27.600 97.363 C 27.600 98.530,27.451 98.800,26.805 98.800 C 26.189 98.800,25.953 99.154,25.759 100.365 C 25.589 101.431,25.268 101.993,24.754 102.128 C 24.318 102.242,24.000 102.678,24.000 103.163 C 24.000 103.654,23.743 104.000,23.376 104.000 C 23.033 104.000,22.864 104.180,23.000 104.400 C 23.136 104.620,23.057 104.800,22.824 104.800 C 22.591 104.800,22.400 105.319,22.400 105.953 C 22.400 106.776,22.167 107.168,21.589 107.319 C 21.142 107.436,20.804 107.682,20.836 107.866 C 21.070 109.197,20.710 110.375,20.000 110.600 C 19.384 110.795,19.200 111.205,19.200 112.380 C 19.200 113.570,19.024 113.953,18.400 114.116 C 17.801 114.273,17.600 114.662,17.600 115.666 C 17.600 116.550,17.341 117.169,16.841 117.482 C 16.338 117.796,15.987 118.640,15.803 119.978 C 15.631 121.227,15.326 122.000,15.005 122.000 C 14.287 122.000,14.000 122.924,14.000 125.233 C 14.000 126.876,13.879 127.200,13.265 127.200 C 12.703 127.200,12.517 127.526,12.477 128.587 C 12.447 129.392,12.084 130.316,11.613 130.787 C 11.018 131.382,10.800 132.123,10.800 133.553 C 10.800 135.170,10.662 135.543,10.000 135.716 C 9.289 135.902,9.200 136.262,9.200 138.963 C 9.200 141.885,9.055 142.230,7.900 142.047 C 7.735 142.021,7.600 143.127,7.600 144.504 C 7.600 146.574,7.462 147.094,6.800 147.507 C 5.404 148.379,5.775 154.400,7.225 154.400 C 7.371 154.400,7.587 153.196,7.705 151.724 C 7.844 149.993,8.135 148.891,8.528 148.603 C 8.918 148.318,9.238 147.126,9.420 145.279 C 9.609 143.358,9.873 142.400,10.214 142.400 C 10.523 142.400,10.833 141.614,10.999 140.408 C 11.150 139.312,11.617 137.978,12.036 137.444 C 12.456 136.911,12.804 135.962,12.809 135.337 C 12.814 134.712,13.170 133.750,13.600 133.200 C 14.030 132.650,14.386 131.713,14.391 131.119 C 14.401 129.938,15.159 128.000,15.612 128.000 C 15.768 128.000,15.991 127.156,16.107 126.124 C 16.224 125.093,16.584 124.055,16.909 123.817 C 17.233 123.580,17.627 122.625,17.784 121.695 C 17.941 120.765,18.237 119.901,18.441 119.775 C 18.645 119.649,19.073 118.921,19.392 118.159 C 19.710 117.396,20.247 116.495,20.585 116.157 C 20.923 115.819,21.200 115.044,21.200 114.433 C 21.200 113.823,21.560 112.998,22.000 112.600 C 22.440 112.202,22.800 111.568,22.800 111.192 C 22.800 110.816,23.160 110.050,23.600 109.491 C 24.040 108.931,24.400 107.990,24.400 107.399 C 24.400 106.662,24.650 106.260,25.200 106.116 C 25.640 106.001,26.000 105.596,26.000 105.215 C 26.000 104.835,26.339 104.217,26.754 103.842 C 27.169 103.466,27.614 102.628,27.744 101.980 C 27.874 101.331,28.234 100.800,28.545 100.800 C 28.868 100.800,29.217 100.236,29.357 99.487 C 29.493 98.765,29.963 97.867,30.402 97.491 C 30.841 97.115,31.200 96.555,31.200 96.247 C 31.200 95.938,31.453 95.588,31.762 95.470 C 32.072 95.351,32.451 94.680,32.605 93.978 C 32.772 93.216,33.189 92.623,33.642 92.505 C 34.059 92.396,34.400 92.041,34.400 91.716 C 34.400 91.392,34.760 90.669,35.200 90.109 C 35.640 89.550,36.000 88.853,36.000 88.560 C 36.000 88.268,36.360 87.835,36.800 87.600 C 37.240 87.365,37.600 86.817,37.600 86.383 C 37.600 85.950,38.050 85.203,38.600 84.725 C 39.150 84.247,39.601 83.663,39.602 83.428 C 39.603 83.193,40.323 82.390,41.202 81.644 C 42.081 80.898,42.800 80.120,42.800 79.917 C 42.800 79.713,43.610 78.552,44.600 77.336 C 45.590 76.121,46.400 74.963,46.400 74.763 C 46.400 74.563,46.670 74.400,47.000 74.400 C 47.330 74.400,47.600 74.140,47.600 73.823 C 47.600 73.505,47.927 73.010,48.326 72.723 C 48.726 72.435,49.170 71.885,49.314 71.500 C 49.457 71.115,49.851 70.800,50.187 70.800 C 50.524 70.800,50.800 70.532,50.800 70.203 C 50.800 69.875,51.160 69.382,51.600 69.107 C 52.040 68.832,52.400 68.393,52.400 68.131 C 52.400 67.868,52.715 67.552,53.100 67.428 C 53.485 67.304,54.160 66.630,54.600 65.932 C 56.359 63.138,56.604 62.840,57.289 62.661 C 57.680 62.559,58.000 62.188,58.000 61.837 C 58.000 61.487,58.225 61.195,58.500 61.189 C 59.062 61.177,62.046 58.547,62.625 57.554 C 62.831 57.200,64.260 55.855,65.800 54.565 C 67.340 53.276,68.835 51.901,69.123 51.510 C 69.410 51.120,69.905 50.800,70.223 50.800 C 70.540 50.800,70.800 50.513,70.800 50.163 C 70.800 49.812,71.160 49.431,71.600 49.316 C 72.040 49.201,72.400 48.841,72.400 48.516 C 72.400 48.191,72.754 47.833,73.187 47.719 C 73.619 47.606,74.082 47.173,74.214 46.757 C 74.346 46.341,74.717 46.000,75.040 46.000 C 75.362 46.000,75.723 45.744,75.843 45.431 C 75.963 45.118,76.723 44.568,77.531 44.207 C 79.850 43.174,81.301 42.337,82.158 41.539 C 82.594 41.132,83.097 40.800,83.275 40.800 C 83.454 40.800,84.005 40.432,84.500 39.981 C 84.995 39.531,85.670 38.924,86.000 38.632 C 86.330 38.340,87.635 37.521,88.900 36.812 C 90.165 36.104,91.200 35.369,91.200 35.180 C 91.200 34.991,91.833 34.718,92.606 34.573 C 93.379 34.428,94.144 34.097,94.306 33.839 C 94.468 33.581,95.500 32.798,96.600 32.100 C 97.700 31.401,98.885 30.553,99.234 30.215 C 99.582 29.877,100.143 29.600,100.480 29.600 C 100.816 29.600,101.550 29.240,102.109 28.800 C 102.669 28.360,103.295 28.000,103.501 28.000 C 103.707 28.000,104.193 27.650,104.579 27.223 C 104.966 26.795,105.842 26.323,106.526 26.172 C 107.688 25.917,110.236 24.809,111.600 23.965 C 111.930 23.761,112.650 23.378,113.200 23.113 C 113.750 22.848,114.629 22.310,115.154 21.916 C 115.679 21.522,116.370 21.200,116.691 21.200 C 117.011 21.200,117.731 20.840,118.291 20.400 C 118.850 19.960,119.619 19.600,120.000 19.600 C 120.381 19.600,121.121 19.263,121.646 18.851 C 122.171 18.439,123.355 17.975,124.277 17.820 C 125.199 17.665,126.153 17.297,126.397 17.003 C 126.641 16.710,127.718 16.349,128.790 16.201 C 129.863 16.054,130.831 15.696,130.942 15.406 C 131.053 15.117,131.922 14.749,132.872 14.589 C 133.822 14.429,135.029 13.961,135.554 13.549 C 136.079 13.137,136.950 12.800,137.491 12.800 C 138.031 12.800,138.931 12.440,139.491 12.000 C 140.050 11.560,140.889 11.192,141.354 11.182 C 141.819 11.173,142.920 10.887,143.800 10.546 C 144.680 10.206,146.361 9.777,147.536 9.594 C 148.710 9.410,149.970 8.997,150.336 8.677 C 150.701 8.357,152.080 7.974,153.400 7.824 C 154.720 7.675,156.340 7.315,157.000 7.024 C 157.660 6.733,159.799 6.372,161.752 6.222 C 163.706 6.072,165.687 5.700,166.153 5.394 C 166.667 5.057,168.736 4.735,171.401 4.576 C 173.820 4.432,176.610 4.043,177.600 3.711 C 181.582 2.377,222.089 2.574,225.800 3.945 C 226.460 4.189,228.759 4.498,230.909 4.632 C 233.252 4.778,235.025 5.082,235.332 5.389 C 235.624 5.681,237.446 6.029,239.553 6.196 C 241.988 6.389,243.328 6.667,243.458 7.007 C 243.578 7.321,244.759 7.635,246.458 7.806 C 248.174 7.978,249.336 8.290,249.459 8.610 C 249.570 8.898,250.590 9.261,251.726 9.417 C 252.863 9.574,254.421 10.039,255.190 10.451 C 255.959 10.863,257.058 11.200,257.633 11.200 C 258.207 11.200,259.093 11.560,259.600 12.000 C 260.107 12.440,260.918 12.800,261.402 12.800 C 262.542 12.800,264.800 13.589,264.800 13.987 C 264.800 14.157,265.617 14.388,266.616 14.501 C 267.615 14.613,268.740 14.972,269.116 15.299 C 269.492 15.625,270.497 15.998,271.350 16.129 C 272.202 16.259,273.192 16.628,273.550 16.949 C 273.907 17.270,274.869 17.656,275.686 17.808 C 276.503 17.960,277.370 18.323,277.613 18.616 C 277.856 18.909,278.628 19.274,279.328 19.426 C 280.027 19.579,281.029 20.041,281.554 20.452 C 282.079 20.863,282.819 21.200,283.200 21.200 C 283.581 21.200,284.350 21.560,284.909 22.000 C 285.469 22.440,286.279 22.800,286.709 22.800 C 287.140 22.800,287.950 23.160,288.509 23.600 C 289.069 24.040,289.699 24.400,289.909 24.400 C 290.120 24.400,290.721 24.737,291.246 25.148 C 291.771 25.559,292.797 26.026,293.527 26.186 C 294.257 26.345,294.947 26.717,295.060 27.013 C 295.174 27.309,295.777 27.663,296.400 27.800 C 297.023 27.937,297.626 28.291,297.740 28.587 C 297.853 28.883,298.497 29.246,299.171 29.394 C 299.844 29.541,300.531 29.899,300.698 30.188 C 300.864 30.477,301.630 31.008,302.400 31.368 C 304.376 32.290,305.356 32.899,306.160 33.703 C 306.543 34.086,307.288 34.400,307.814 34.400 C 308.362 34.400,308.955 34.742,309.200 35.200 C 309.435 35.640,309.982 36.000,310.414 36.000 C 310.846 36.000,311.560 36.360,312.000 36.800 C 312.440 37.240,313.087 37.600,313.437 37.600 C 313.788 37.600,314.169 37.960,314.284 38.400 C 314.399 38.840,314.787 39.200,315.147 39.200 C 315.506 39.201,316.323 39.651,316.962 40.200 C 317.601 40.750,318.366 41.200,318.662 41.200 C 318.958 41.200,319.200 41.441,319.200 41.736 C 319.200 42.030,319.650 42.477,320.200 42.727 C 320.750 42.978,321.200 43.367,321.200 43.591 C 321.200 43.816,321.451 44.000,321.758 44.000 C 322.065 44.000,322.740 44.447,323.258 44.993 C 323.776 45.539,324.431 45.989,324.713 45.993 C 324.994 45.997,325.334 46.284,325.467 46.631 C 325.600 46.977,326.135 47.423,326.655 47.621 C 327.175 47.818,327.600 48.255,327.600 48.590 C 327.600 48.933,327.950 49.200,328.400 49.200 C 328.852 49.200,329.200 49.467,329.200 49.813 C 329.200 50.149,329.515 50.538,329.900 50.676 C 330.591 50.924,331.407 51.619,334.317 54.434 C 335.133 55.223,336.115 55.982,336.500 56.122 C 336.885 56.261,337.200 56.565,337.200 56.797 C 337.200 57.030,337.650 57.391,338.200 57.600 C 338.750 57.809,339.200 58.255,339.200 58.590 C 339.200 58.926,339.487 59.200,339.837 59.200 C 340.188 59.200,340.567 59.554,340.681 59.987 C 340.794 60.419,341.227 60.882,341.643 61.014 C 342.059 61.146,342.400 61.500,342.400 61.800 C 342.400 62.100,342.741 62.454,343.157 62.586 C 343.573 62.718,344.006 63.181,344.119 63.613 C 344.233 64.046,344.612 64.400,344.963 64.400 C 345.313 64.400,345.600 64.668,345.600 64.997 C 345.600 65.325,345.960 65.818,346.400 66.093 C 346.840 66.368,347.200 66.820,347.200 67.099 C 347.200 67.377,347.650 67.997,348.200 68.475 C 348.750 68.953,349.200 69.575,349.200 69.858 C 349.200 70.141,349.560 70.565,350.000 70.800 C 350.440 71.035,350.800 71.492,350.800 71.814 C 350.800 72.136,351.074 72.400,351.410 72.400 C 351.745 72.400,352.191 72.850,352.400 73.400 C 352.609 73.950,353.055 74.400,353.390 74.400 C 353.726 74.400,354.000 74.664,354.000 74.986 C 354.000 75.308,354.345 75.757,354.767 75.983 C 355.190 76.209,355.654 76.935,355.799 77.597 C 355.945 78.259,356.234 78.800,356.442 78.800 C 356.650 78.800,356.991 79.250,357.200 79.800 C 357.409 80.350,357.859 80.800,358.200 80.800 C 358.541 80.800,358.991 81.250,359.200 81.800 C 359.409 82.350,359.750 82.800,359.958 82.800 C 360.166 82.800,360.455 83.341,360.601 84.003 C 360.746 84.665,361.210 85.391,361.633 85.617 C 362.055 85.843,362.400 86.285,362.400 86.600 C 362.400 86.915,362.760 87.365,363.200 87.600 C 363.640 87.835,364.000 88.384,364.000 88.818 C 364.000 89.252,364.360 89.916,364.800 90.293 C 365.240 90.670,365.600 91.315,365.600 91.726 C 365.600 92.138,365.943 92.565,366.362 92.674 C 366.848 92.801,367.218 93.368,367.381 94.237 C 367.521 94.987,367.812 95.600,368.027 95.600 C 368.241 95.600,368.638 96.093,368.909 96.695 C 369.179 97.296,369.715 98.106,370.100 98.495 C 370.485 98.883,370.800 99.566,370.800 100.013 C 370.800 100.459,371.059 100.924,371.376 101.046 C 371.692 101.167,372.076 101.837,372.229 102.533 C 372.382 103.230,372.843 104.035,373.254 104.323 C 373.664 104.610,374.000 105.113,374.000 105.439 C 374.000 105.766,374.360 106.420,374.800 106.892 C 375.240 107.364,375.600 108.083,375.600 108.488 C 375.600 108.893,375.868 109.328,376.196 109.454 C 376.523 109.579,376.980 110.384,377.211 111.241 C 377.442 112.099,377.797 112.800,377.999 112.800 C 378.202 112.800,378.586 113.565,378.853 114.500 C 379.120 115.435,379.568 116.475,379.850 116.810 C 380.132 117.146,380.482 118.170,380.628 119.086 C 380.775 120.001,381.133 120.842,381.425 120.954 C 381.717 121.066,382.082 121.842,382.236 122.679 C 382.390 123.516,382.850 124.629,383.258 125.154 C 383.666 125.679,384.000 126.670,384.000 127.358 C 384.000 128.174,384.277 128.781,384.800 129.107 C 385.319 129.431,385.600 130.040,385.600 130.840 C 385.600 131.519,385.939 132.505,386.353 133.031 C 386.767 133.558,387.232 134.993,387.385 136.219 C 387.543 137.485,387.894 138.538,388.196 138.654 C 388.507 138.773,388.842 139.842,389.003 141.229 C 389.235 143.221,389.404 143.600,390.060 143.600 C 391.212 143.600,391.098 137.603,389.940 137.300 C 389.373 137.152,389.188 136.698,389.150 135.353 C 389.123 134.389,389.055 133.420,389.000 133.200 C 388.945 132.980,388.878 132.620,388.850 132.400 C 388.822 132.180,388.530 132.000,388.200 132.000 C 387.629 132.000,387.363 130.387,387.584 128.270 C 387.630 127.829,387.332 127.455,386.830 127.324 C 386.374 127.204,385.988 126.993,385.973 126.853 C 385.958 126.714,385.873 125.791,385.784 124.803 C 385.695 123.815,385.355 122.810,385.027 122.570 C 384.699 122.331,384.311 121.384,384.164 120.467 C 383.962 119.200,383.718 118.800,383.149 118.800 C 382.547 118.800,382.400 118.498,382.400 117.262 C 382.400 116.232,382.136 115.485,381.600 115.000 C 381.065 114.516,380.800 113.768,380.800 112.741 C 380.800 111.640,380.574 111.066,380.000 110.707 C 379.560 110.432,379.200 109.934,379.200 109.600 C 379.200 109.266,378.840 108.768,378.400 108.493 C 377.890 108.174,377.600 107.560,377.600 106.797 C 377.600 105.879,377.419 105.600,376.824 105.600 C 376.217 105.600,376.021 105.275,375.924 104.109 C 375.840 103.105,375.539 102.485,375.000 102.209 C 374.560 101.984,374.185 101.485,374.167 101.100 C 374.076 99.196,373.961 98.800,373.496 98.800 C 373.219 98.800,372.768 98.440,372.493 98.000 C 372.218 97.560,371.725 97.200,371.397 97.200 C 370.967 97.200,370.800 96.752,370.800 95.600 C 370.800 94.267,370.667 94.000,370.000 94.000 C 369.348 94.000,369.200 93.733,369.200 92.563 C 369.200 91.462,369.013 91.076,368.400 90.916 C 367.940 90.796,367.600 90.370,367.600 89.916 C 367.600 89.473,367.263 89.037,366.834 88.925 C 366.145 88.745,365.352 87.112,365.544 86.270 C 365.586 86.089,365.456 86.042,365.256 86.165 C 365.056 86.289,364.670 85.852,364.398 85.195 C 364.126 84.538,363.655 84.000,363.351 84.000 C 363.048 84.000,362.800 83.761,362.800 83.470 C 362.800 83.178,362.350 82.517,361.800 82.000 C 361.250 81.483,360.800 80.625,360.800 80.093 C 360.800 79.462,360.522 79.052,360.000 78.916 C 359.557 78.800,359.200 78.370,359.200 77.953 C 359.200 77.467,358.917 77.200,358.400 77.200 C 357.867 77.200,357.600 76.933,357.600 76.400 C 357.600 75.867,357.333 75.600,356.800 75.600 C 356.178 75.600,356.000 75.333,356.000 74.400 C 356.000 73.740,355.809 73.200,355.576 73.200 C 355.343 73.200,355.283 72.989,355.442 72.732 C 355.633 72.423,355.518 72.346,355.102 72.505 C 354.665 72.673,354.399 72.450,354.229 71.773 C 354.095 71.238,353.718 70.800,353.392 70.800 C 353.067 70.800,352.800 70.534,352.800 70.209 C 352.800 69.884,352.350 69.324,351.800 68.963 C 351.250 68.603,350.800 68.059,350.800 67.754 C 350.800 67.449,350.665 67.221,350.500 67.247 C 349.687 67.376,349.275 67.129,349.084 66.400 C 348.969 65.960,348.588 65.600,348.237 65.600 C 347.847 65.600,347.595 65.252,347.587 64.700 C 347.573 63.660,346.652 62.281,346.245 62.689 C 346.093 62.841,345.866 62.574,345.741 62.096 C 345.616 61.618,345.173 61.118,344.757 60.986 C 344.341 60.854,344.000 60.483,344.000 60.160 C 344.000 59.838,343.712 59.464,343.360 59.329 C 342.545 59.017,340.988 57.468,340.679 56.662 C 340.549 56.322,339.819 55.927,339.058 55.784 C 338.171 55.618,337.602 55.251,337.474 54.762 C 337.365 54.343,337.009 54.000,336.684 54.000 C 336.359 54.000,335.999 53.640,335.884 53.200 C 335.769 52.760,335.409 52.400,335.084 52.400 C 334.759 52.400,334.399 52.040,334.284 51.600 C 334.169 51.160,333.788 50.800,333.437 50.800 C 333.067 50.800,332.800 50.465,332.800 50.000 C 332.800 49.476,332.533 49.200,332.027 49.200 C 331.602 49.200,331.143 48.849,331.006 48.420 C 330.870 47.992,330.408 47.530,329.980 47.394 C 329.551 47.257,329.200 46.900,329.200 46.600 C 329.200 46.300,328.822 45.934,328.361 45.787 C 327.899 45.641,327.179 45.179,326.761 44.761 C 326.342 44.342,325.640 44.000,325.200 44.000 C 324.667 44.000,324.400 43.733,324.400 43.200 C 324.400 42.683,324.133 42.400,323.647 42.400 C 323.230 42.400,322.800 42.043,322.684 41.600 C 322.559 41.121,322.138 40.800,321.637 40.800 C 321.177 40.800,320.821 40.665,320.847 40.500 C 320.954 39.825,320.782 39.203,320.500 39.247 C 319.177 39.456,318.023 39.102,317.806 38.420 C 317.670 37.992,317.228 37.536,316.823 37.407 C 316.418 37.279,315.994 36.819,315.881 36.387 C 315.767 35.954,315.363 35.600,314.982 35.600 C 314.600 35.600,314.088 35.328,313.844 34.995 C 313.600 34.663,312.971 34.308,312.446 34.208 C 311.347 33.997,311.000 33.723,311.000 33.067 C 311.000 32.810,310.280 32.508,309.400 32.395 C 308.437 32.271,307.839 31.995,307.898 31.702 C 307.951 31.433,307.546 31.101,306.998 30.964 C 306.374 30.807,306.000 30.430,306.000 29.957 C 306.000 29.540,305.865 29.221,305.700 29.247 C 304.079 29.503,302.800 29.130,302.800 28.400 C 302.800 27.876,302.533 27.600,302.027 27.600 C 301.602 27.600,301.146 27.261,301.015 26.848 C 300.877 26.411,300.250 25.990,299.524 25.845 C 298.835 25.707,298.020 25.236,297.713 24.797 C 297.346 24.273,296.700 24.000,295.824 24.000 C 294.830 24.000,294.440 23.798,294.284 23.200 C 294.125 22.594,293.738 22.400,292.684 22.400 C 291.646 22.400,291.242 22.204,291.091 21.627 C 290.944 21.063,290.471 20.819,289.344 20.727 C 288.295 20.641,287.800 20.408,287.800 20.000 C 287.800 19.583,287.295 19.363,286.141 19.279 C 284.893 19.188,284.432 18.965,284.279 18.379 C 284.124 17.789,283.726 17.600,282.637 17.600 C 281.467 17.600,281.200 17.452,281.200 16.800 C 281.200 16.154,280.933 16.000,279.816 16.000 C 278.916 16.000,278.152 15.700,277.633 15.143 C 277.091 14.562,276.185 14.223,274.817 14.092 C 273.559 13.971,272.800 13.708,272.800 13.392 C 272.800 12.703,271.872 12.400,269.767 12.400 C 268.523 12.400,268.000 12.235,268.000 11.843 C 268.000 11.088,267.108 10.800,264.767 10.800 C 263.067 10.800,262.800 10.692,262.800 10.000 C 262.800 9.293,262.533 9.200,260.496 9.200 C 258.626 9.200,258.098 9.050,257.693 8.400 C 257.296 7.765,256.760 7.600,255.093 7.600 C 253.426 7.600,252.889 7.435,252.493 6.800 C 252.072 6.126,251.560 6.000,249.243 6.000 C 246.907 6.000,246.464 5.889,246.300 5.262 C 246.097 4.485,243.740 4.011,240.044 4.003 C 238.857 4.001,238.127 3.780,237.791 3.321 C 237.401 2.787,236.475 2.605,233.482 2.474 C 230.163 2.329,229.644 2.210,229.472 1.554 C 229.289 0.855,228.807 0.800,222.837 0.800 C 218.812 0.800,216.400 0.650,216.400 0.400 C 216.400 0.140,210.800 0.000,200.400 0.000 C 190.000 0.000,184.400 0.140,184.400 0.400 M187.200 17.034 C 186.430 17.121,183.100 17.468,179.800 17.805 C 171.983 18.602,164.006 19.983,155.800 21.961 C 153.914 22.415,149.720 23.615,145.800 24.822 C 144.260 25.296,141.852 26.020,140.450 26.430 C 138.034 27.138,135.969 27.972,132.800 29.522 C 130.708 30.545,130.827 32.528,133.719 44.800 C 134.704 48.976,135.187 51.439,136.232 57.600 L 137.215 63.400 136.808 96.000 C 136.585 113.930,136.402 135.356,136.401 143.613 C 136.400 155.214,136.274 159.077,135.844 160.613 C 134.302 166.119,133.523 168.506,132.195 171.800 C 129.957 177.348,127.039 183.200,125.095 186.039 C 124.126 187.455,123.078 189.082,122.767 189.654 C 122.455 190.227,121.807 191.408,121.326 192.280 C 115.697 202.492,101.996 203.584,95.700 194.324 C 90.131 186.134,86.340 179.235,84.089 173.200 C 83.638 171.990,82.967 170.190,82.598 169.200 C 82.007 167.616,81.355 165.410,79.995 160.400 C 79.766 159.555,79.610 140.396,79.601 112.044 C 79.587 62.976,79.593 63.200,78.333 63.200 C 76.313 63.200,58.919 81.374,53.145 89.518 C 52.099 90.993,50.440 93.280,49.458 94.600 C 41.983 104.650,33.718 120.193,27.761 135.400 C 25.778 140.461,23.200 148.180,23.200 149.055 C 23.200 149.339,22.922 150.391,22.582 151.392 C 21.645 154.153,18.830 166.905,18.210 171.200 C 17.909 173.290,17.473 176.260,17.241 177.800 C 15.601 188.716,15.680 212.057,17.395 223.000 C 17.706 224.980,18.146 228.107,18.375 229.949 C 18.603 231.790,19.051 234.220,19.371 235.349 C 19.691 236.477,20.339 239.290,20.811 241.600 C 21.282 243.910,22.004 246.880,22.414 248.200 C 25.257 257.349,28.183 266.174,28.802 267.469 C 29.204 268.311,30.102 270.350,30.797 272.000 C 33.716 278.927,38.163 287.857,40.658 291.800 C 41.633 293.340,42.689 295.169,43.005 295.864 C 43.964 297.969,50.856 308.292,52.600 310.233 C 53.040 310.723,54.840 312.976,56.600 315.239 C 60.783 320.617,66.818 327.035,74.429 334.200 C 78.218 337.766,78.909 338.362,83.200 341.763 C 84.850 343.070,86.290 344.243,86.400 344.370 C 86.510 344.496,87.820 345.500,89.311 346.600 C 90.803 347.700,93.029 349.365,94.260 350.300 C 95.490 351.235,96.642 352.000,96.820 352.000 C 96.997 352.000,97.399 352.256,97.711 352.569 C 98.024 352.881,98.918 353.466,99.697 353.869 C 100.476 354.271,102.419 355.410,104.014 356.400 C 117.534 364.788,133.505 371.840,148.904 376.220 C 151.491 376.955,153.776 377.661,153.981 377.788 C 154.186 377.915,155.399 378.207,156.677 378.438 C 157.955 378.669,159.771 379.115,160.714 379.429 C 161.657 379.743,163.102 380.000,163.927 380.000 C 164.751 380.000,166.410 380.278,167.613 380.618 C 168.816 380.958,172.140 381.488,175.000 381.795 C 177.860 382.102,181.730 382.588,183.600 382.874 C 188.673 383.650,211.279 383.517,216.800 382.680 C 219.110 382.329,222.350 381.934,224.000 381.802 C 225.650 381.670,228.530 381.224,230.400 380.810 C 232.270 380.397,234.880 379.878,236.200 379.657 C 240.856 378.876,253.613 375.589,256.400 374.451 C 257.390 374.047,259.460 373.311,261.000 372.816 C 264.630 371.648,268.450 370.184,271.178 368.915 C 273.620 367.780,278.376 365.773,280.200 365.109 C 280.860 364.869,281.829 364.341,282.354 363.936 C 282.879 363.531,283.471 363.200,283.670 363.200 C 284.052 363.200,295.413 356.632,296.343 355.874 C 296.982 355.353,298.206 354.626,299.600 353.940 C 300.150 353.669,300.960 353.140,301.400 352.764 C 301.840 352.388,303.730 351.043,305.600 349.777 C 307.470 348.510,309.540 347.042,310.200 346.516 C 310.860 345.989,312.930 344.373,314.800 342.924 C 318.112 340.358,318.876 339.705,321.975 336.800 C 322.797 336.030,325.305 333.690,327.550 331.600 C 329.794 329.510,333.303 325.910,335.347 323.600 C 340.151 318.171,340.453 317.814,342.704 314.913 C 343.747 313.569,345.428 311.419,346.440 310.135 C 353.139 301.638,361.742 287.320,366.959 275.986 C 369.622 270.201,369.926 269.491,371.153 266.200 C 371.809 264.440,372.615 262.280,372.945 261.400 C 373.275 260.520,374.292 257.370,375.205 254.400 C 376.118 251.430,377.200 248.010,377.611 246.800 C 378.021 245.590,378.479 243.610,378.628 242.400 C 378.777 241.190,379.073 239.750,379.285 239.200 C 379.787 237.894,381.558 227.893,382.011 223.800 C 382.206 222.040,382.639 218.350,382.975 215.600 C 383.806 208.782,383.815 189.103,382.989 183.000 C 382.662 180.580,382.208 176.800,381.982 174.600 C 381.755 172.400,381.314 169.430,381.002 168.000 C 380.690 166.570,380.315 164.410,380.170 163.200 C 380.024 161.990,379.670 160.370,379.382 159.600 C 379.094 158.830,378.653 156.943,378.402 155.407 C 378.150 153.872,377.798 152.432,377.619 152.207 C 377.441 151.983,377.010 150.630,376.662 149.200 C 375.632 144.962,374.907 142.567,374.283 141.348 C 373.960 140.717,373.572 139.623,373.420 138.918 C 373.268 138.213,372.539 136.180,371.800 134.400 C 371.061 132.620,370.330 130.587,370.176 129.882 C 370.022 129.177,369.559 128.171,369.148 127.646 C 368.737 127.121,368.400 126.548,368.400 126.371 C 368.400 125.939,361.391 111.765,360.305 110.000 C 359.831 109.230,358.620 107.340,357.613 105.800 C 356.606 104.260,355.262 102.100,354.626 101.000 C 353.990 99.900,353.127 98.550,352.709 98.000 C 352.291 97.450,350.810 95.264,349.417 93.142 C 346.879 89.274,341.216 82.120,337.432 78.000 C 332.596 72.735,320.953 61.213,320.461 61.207 C 320.165 61.203,318.744 60.120,317.303 58.800 C 314.531 56.259,314.166 56.098,313.049 56.915 C 312.409 57.383,312.396 57.577,312.910 59.068 C 313.386 60.452,313.449 67.833,313.312 106.653 C 313.141 155.321,313.000 159.213,311.235 163.760 C 310.800 164.882,309.986 167.288,309.427 169.107 C 307.778 174.475,303.901 182.225,298.580 190.790 C 296.596 193.984,292.147 198.752,290.876 199.046 C 290.284 199.183,289.350 199.578,288.800 199.924 C 283.271 203.399,271.974 197.278,268.838 189.108 C 268.646 188.608,267.839 187.237,267.045 186.060 C 266.250 184.883,265.600 183.768,265.600 183.583 C 265.600 183.397,265.197 182.563,264.705 181.729 C 262.573 178.116,257.980 166.373,257.183 162.498 C 256.923 161.234,256.514 159.840,256.274 159.400 C 255.964 158.832,255.866 144.748,255.937 110.800 C 256.041 60.512,256.083 59.271,257.857 53.626 C 258.172 52.622,258.773 49.910,259.192 47.600 C 259.611 45.290,260.499 41.034,261.165 38.142 C 263.234 29.156,263.005 27.103,259.877 26.585 C 258.955 26.432,257.865 26.131,257.456 25.916 C 255.670 24.977,242.423 21.430,236.155 20.213 C 234.590 19.909,232.610 19.473,231.755 19.245 C 230.900 19.016,228.310 18.640,226.000 18.409 C 223.690 18.177,220.630 17.810,219.200 17.591 C 216.611 17.197,189.865 16.730,187.200 17.034 M390.662 143.899 C 390.355 144.396,390.860 150.400,391.209 150.400 C 392.562 150.400,392.878 143.937,391.537 143.682 C 391.173 143.613,390.779 143.710,390.662 143.899 M392.400 153.429 C 392.400 156.098,392.483 156.443,393.100 156.325 C 394.499 156.059,394.166 150.400,392.751 150.400 C 392.558 150.400,392.400 151.763,392.400 153.429 M4.250 156.450 C 4.112 157.138,4.000 158.603,4.000 159.706 C 4.000 161.155,3.806 161.854,3.300 162.223 C 2.718 162.649,2.600 163.379,2.600 166.567 C 2.600 169.405,2.468 170.399,2.090 170.400 C 1.149 170.400,0.866 172.240,0.822 178.639 C 0.797 182.366,0.618 185.055,0.389 185.133 C -0.151 185.318,-0.140 214.400,0.400 214.400 C 0.651 214.400,0.800 216.989,0.800 221.367 C 0.800 228.639,0.922 229.600,1.843 229.600 C 2.279 229.600,2.400 230.411,2.400 233.346 C 2.400 236.486,2.529 237.257,3.200 238.109 C 3.748 238.805,4.001 239.737,4.004 241.063 C 4.012 244.253,4.423 245.953,5.251 246.216 C 5.899 246.422,6.000 246.876,6.000 249.600 C 6.000 252.395,6.089 252.774,6.800 253.000 C 7.482 253.216,7.600 253.605,7.600 255.627 C 7.600 257.733,7.690 258.000,8.400 258.000 C 9.129 258.000,9.200 258.267,9.200 260.986 C 9.200 263.562,9.310 264.031,10.000 264.400 C 10.613 264.728,10.800 265.238,10.800 266.581 C 10.800 268.715,11.106 269.600,11.843 269.600 C 12.235 269.600,12.400 270.123,12.400 271.367 C 12.400 273.514,12.704 274.400,13.443 274.400 C 13.792 274.400,14.000 274.836,14.000 275.567 C 14.000 277.113,14.367 278.000,15.008 278.000 C 15.307 278.000,15.648 278.700,15.807 279.642 C 15.960 280.546,16.426 281.626,16.842 282.042 C 17.259 282.459,17.600 283.148,17.600 283.573 C 17.600 283.998,17.960 284.460,18.400 284.600 C 19.069 284.812,19.200 285.205,19.200 287.000 C 19.200 288.795,19.331 289.188,20.000 289.400 C 20.440 289.540,20.800 290.002,20.800 290.427 C 20.800 290.852,21.160 291.560,21.600 292.000 C 22.040 292.440,22.402 293.115,22.405 293.500 C 22.416 294.844,22.898 296.000,23.447 296.000 C 23.751 296.000,24.000 296.348,24.000 296.773 C 24.000 297.198,24.360 297.660,24.800 297.800 C 25.301 297.959,25.600 298.405,25.600 298.994 C 25.600 300.459,26.017 301.200,26.843 301.200 C 27.445 301.200,27.600 301.494,27.600 302.637 C 27.600 303.738,27.787 304.124,28.400 304.284 C 28.918 304.419,29.200 304.830,29.200 305.447 C 29.200 305.971,29.560 306.760,30.000 307.200 C 30.440 307.640,30.800 308.287,30.800 308.637 C 30.800 308.988,31.160 309.369,31.600 309.484 C 32.162 309.631,32.400 310.030,32.400 310.824 C 32.400 311.458,32.719 312.184,33.126 312.477 C 33.526 312.765,33.970 313.315,34.114 313.700 C 34.257 314.085,34.651 314.400,34.987 314.400 C 35.324 314.400,35.600 314.726,35.600 315.125 C 35.600 315.523,35.963 316.238,36.406 316.714 C 36.849 317.190,37.385 318.034,37.596 318.590 C 37.807 319.145,38.255 319.600,38.590 319.600 C 38.933 319.600,39.200 319.950,39.200 320.400 C 39.200 320.933,39.467 321.200,40.000 321.200 C 40.497 321.200,40.800 321.467,40.800 321.904 C 40.800 322.291,41.160 322.832,41.600 323.107 C 42.040 323.382,42.400 323.964,42.400 324.400 C 42.400 324.836,42.760 325.418,43.200 325.693 C 43.640 325.968,44.000 326.424,44.000 326.706 C 44.000 326.989,44.461 327.395,45.024 327.609 C 45.593 327.826,45.931 328.188,45.784 328.426 C 45.638 328.661,45.882 328.949,46.326 329.065 C 46.769 329.181,47.236 329.687,47.362 330.190 C 47.488 330.693,47.953 331.199,48.396 331.315 C 48.838 331.430,49.200 331.812,49.200 332.163 C 49.200 332.533,49.535 332.800,50.000 332.800 C 50.619 332.800,50.800 333.067,50.800 333.977 C 50.800 334.656,51.107 335.376,51.526 335.677 C 51.926 335.965,52.370 336.515,52.514 336.900 C 52.657 337.285,53.051 337.600,53.387 337.600 C 53.724 337.600,54.000 337.887,54.000 338.237 C 54.000 338.588,54.360 338.969,54.800 339.084 C 55.240 339.199,55.600 339.559,55.600 339.884 C 55.600 340.209,55.954 340.567,56.387 340.681 C 56.819 340.794,57.279 341.218,57.407 341.623 C 57.536 342.028,57.992 342.470,58.420 342.606 C 58.849 342.743,59.200 343.100,59.200 343.400 C 59.200 343.700,59.560 344.060,60.000 344.200 C 60.440 344.340,60.800 344.712,60.800 345.027 C 60.800 345.342,60.981 345.600,61.203 345.600 C 61.424 345.600,61.997 346.050,62.475 346.600 C 63.018 347.225,63.768 347.600,64.472 347.600 C 65.333 347.600,65.600 347.789,65.600 348.400 C 65.600 348.933,65.867 349.200,66.400 349.200 C 66.910 349.200,67.200 349.467,67.200 349.936 C 67.200 350.340,67.660 350.881,68.223 351.137 C 68.785 351.394,69.151 351.756,69.035 351.943 C 68.920 352.130,69.269 352.485,69.813 352.733 C 70.356 352.980,70.800 353.457,70.800 353.791 C 70.800 354.133,71.151 354.400,71.600 354.400 C 72.133 354.400,72.400 354.667,72.400 355.200 C 72.400 355.733,72.667 356.000,73.200 356.000 C 73.650 356.000,74.000 356.267,74.000 356.610 C 74.000 356.945,74.425 357.382,74.945 357.579 C 75.465 357.777,76.000 358.223,76.133 358.569 C 76.280 358.952,76.852 359.200,77.587 359.200 C 78.533 359.200,78.800 359.376,78.800 360.000 C 78.800 360.524,79.067 360.800,79.573 360.800 C 79.998 360.800,80.460 361.160,80.600 361.600 C 80.774 362.147,81.338 362.477,82.392 362.645 C 83.434 362.812,83.994 363.135,84.128 363.646 C 84.236 364.061,84.591 364.400,84.916 364.400 C 85.241 364.400,85.601 364.760,85.716 365.200 C 85.876 365.813,86.262 366.000,87.363 366.000 C 88.384 366.000,88.800 366.177,88.800 366.610 C 88.800 366.945,89.225 367.382,89.745 367.579 C 90.265 367.777,90.800 368.223,90.933 368.569 C 91.090 368.979,91.670 369.200,92.587 369.200 C 93.733 369.200,94.000 369.351,94.000 370.000 C 94.000 370.667,94.267 370.800,95.600 370.800 C 96.930 370.800,97.200 370.934,97.200 371.595 C 97.200 372.214,97.556 372.447,98.800 372.646 C 99.718 372.793,100.400 373.125,100.400 373.424 C 100.400 373.711,100.805 374.073,101.300 374.228 C 101.795 374.383,102.629 374.845,103.154 375.255 C 103.679 375.665,104.622 376.000,105.251 376.000 C 105.960 376.000,106.583 376.303,106.893 376.800 C 107.244 377.362,107.826 377.600,108.850 377.600 C 109.970 377.600,110.355 377.785,110.516 378.400 C 110.675 379.009,111.062 379.200,112.136 379.200 C 113.181 379.200,113.610 379.401,113.793 379.978 C 113.976 380.556,114.472 380.787,115.720 380.878 C 116.892 380.963,117.400 381.181,117.400 381.600 C 117.400 382.544,121.341 382.448,121.524 381.500 C 121.632 380.940,121.376 380.800,120.243 380.800 C 119.260 380.800,118.703 380.567,118.419 380.036 C 118.172 379.574,117.375 379.165,116.405 379.001 C 115.523 378.852,114.665 378.521,114.500 378.265 C 114.189 377.783,110.449 375.874,108.937 375.426 C 108.462 375.285,107.973 374.906,107.850 374.585 C 107.726 374.263,107.284 374.000,106.866 374.000 C 106.449 374.000,105.650 373.640,105.091 373.200 C 104.531 372.760,103.815 372.400,103.499 372.400 C 103.183 372.400,102.607 372.050,102.221 371.623 C 101.834 371.195,100.984 370.728,100.331 370.585 C 99.679 370.442,99.055 370.088,98.944 369.798 C 98.833 369.509,98.260 369.151,97.671 369.004 C 97.082 368.856,96.278 368.390,95.884 367.968 C 95.491 367.545,94.922 367.200,94.620 367.200 C 94.319 367.200,93.190 366.503,92.113 365.651 C 91.035 364.799,89.792 363.988,89.351 363.848 C 88.910 363.708,87.903 363.002,87.114 362.279 C 86.325 361.556,85.211 360.751,84.639 360.491 C 84.068 360.230,83.600 359.853,83.600 359.652 C 83.600 359.451,83.155 359.175,82.612 359.039 C 82.068 358.902,81.432 358.433,81.197 357.995 C 80.963 357.558,80.568 357.200,80.319 357.200 C 80.071 357.200,79.582 356.933,79.234 356.608 C 77.625 355.103,76.259 354.000,76.005 354.000 C 75.752 354.000,73.002 351.591,70.986 349.603 C 70.538 349.161,69.953 348.800,69.686 348.800 C 69.419 348.800,69.200 348.530,69.200 348.200 C 69.200 347.870,68.996 347.600,68.746 347.600 C 68.496 347.600,67.898 347.195,67.417 346.700 C 66.936 346.205,65.222 344.630,63.608 343.200 C 57.810 338.065,50.800 330.746,50.800 329.828 C 50.800 329.534,50.440 329.199,50.000 329.084 C 49.560 328.969,49.200 328.588,49.200 328.237 C 49.200 327.887,48.924 327.600,48.587 327.600 C 48.251 327.600,47.857 327.285,47.714 326.900 C 47.570 326.515,47.126 325.965,46.726 325.677 C 46.327 325.390,46.000 324.979,46.000 324.764 C 46.000 324.549,45.352 323.726,44.561 322.934 C 43.769 322.143,42.942 320.979,42.722 320.348 C 42.502 319.716,42.098 319.200,41.825 319.200 C 41.552 319.200,41.123 318.750,40.873 318.200 C 40.622 317.650,40.233 317.200,40.009 317.200 C 39.784 317.200,39.600 316.938,39.600 316.618 C 39.600 316.298,39.150 315.586,38.600 315.036 C 38.050 314.486,37.600 313.758,37.600 313.418 C 37.600 313.078,37.450 312.800,37.267 312.800 C 36.866 312.800,34.400 309.066,34.400 308.458 C 34.400 308.222,34.040 307.835,33.600 307.600 C 33.160 307.365,32.800 306.948,32.800 306.675 C 32.800 306.401,32.440 305.870,32.000 305.493 C 31.560 305.116,31.200 304.362,31.200 303.818 C 31.200 303.252,30.872 302.652,30.433 302.417 C 30.010 302.191,29.546 301.465,29.401 300.803 C 29.255 300.141,28.962 299.600,28.748 299.600 C 28.534 299.600,28.109 299.001,27.803 298.268 C 27.497 297.536,26.966 296.704,26.623 296.419 C 26.280 296.135,26.000 295.474,26.000 294.951 C 26.000 294.428,25.849 294.000,25.664 294.000 C 25.234 294.000,24.400 292.181,24.400 291.243 C 24.400 290.848,24.040 290.198,23.600 289.800 C 23.160 289.402,22.800 288.817,22.800 288.501 C 22.800 288.185,22.440 287.469,22.000 286.909 C 21.560 286.350,21.200 285.638,21.200 285.328 C 21.200 285.017,20.750 283.918,20.200 282.885 C 19.650 281.852,19.200 280.709,19.200 280.346 C 19.200 279.983,18.953 279.591,18.651 279.475 C 18.348 279.359,17.978 278.609,17.828 277.810 C 17.678 277.010,17.205 276.005,16.778 275.578 C 16.304 275.104,16.000 274.253,16.000 273.400 C 16.000 272.630,15.849 272.000,15.664 272.000 C 15.182 272.000,14.400 270.133,14.400 268.981 C 14.400 268.442,14.040 267.640,13.600 267.200 C 13.097 266.697,12.800 265.867,12.800 264.963 C 12.800 264.162,12.467 263.103,12.047 262.569 C 11.632 262.041,11.166 260.575,11.010 259.306 C 10.854 258.037,10.496 256.730,10.215 256.400 C 9.934 256.070,9.580 254.826,9.429 253.636 C 9.279 252.445,8.897 251.102,8.580 250.650 C 8.264 250.199,7.889 248.952,7.746 247.880 C 7.604 246.809,7.263 245.846,6.989 245.740 C 6.679 245.621,6.384 244.274,6.209 242.175 C 5.957 239.144,5.845 238.800,5.117 238.800 C 4.473 238.800,4.355 238.615,4.543 237.900 C 4.995 236.174,4.321 228.778,3.649 228.106 C 3.145 227.602,2.982 226.045,2.805 220.041 C 2.685 215.948,2.456 212.394,2.296 212.143 C 1.613 211.067,1.254 196.595,1.822 193.000 C 2.353 189.637,2.784 183.968,2.923 178.499 C 3.049 173.538,3.201 172.262,3.739 171.668 C 4.280 171.070,4.400 170.023,4.400 165.906 C 4.400 161.158,4.443 160.886,5.161 161.074 C 5.937 161.277,6.427 158.601,6.072 156.100 C 5.872 154.688,4.552 154.942,4.250 156.450 M394.000 161.800 C 394.000 164.200,394.120 164.800,394.600 164.800 C 394.930 164.800,395.218 164.575,395.240 164.300 C 395.262 164.025,395.439 164.250,395.634 164.800 C 395.888 165.516,395.934 165.175,395.798 163.600 C 395.693 162.390,395.605 160.815,395.603 160.100 C 395.601 159.068,395.435 158.800,394.800 158.800 C 394.071 158.800,394.000 159.067,394.000 161.800 M395.838 169.655 C 395.697 170.531,395.666 171.383,395.768 171.548 C 395.870 171.713,395.992 173.169,396.039 174.783 C 396.111 177.233,396.207 177.605,396.622 177.038 C 396.895 176.664,397.182 176.546,397.260 176.776 C 397.401 177.197,397.413 170.941,397.274 169.343 C 397.133 167.716,396.112 167.938,395.838 169.655 M397.480 180.700 C 397.208 181.188,397.377 217.510,397.652 217.786 C 398.954 219.088,400.191 184.249,398.957 181.033 C 398.707 180.380,397.776 180.170,397.480 180.700 M395.856 222.929 C 395.207 228.328,395.693 232.067,396.889 230.871 C 397.731 230.029,397.702 221.856,396.854 221.326 C 396.166 220.897,396.084 221.029,395.856 222.929 M394.000 236.038 C 394.000 239.265,394.076 239.644,394.697 239.524 C 396.237 239.228,396.495 233.554,395.000 232.873 L 394.000 232.417 394.000 236.038 M56.265 243.400 C 57.004 246.474,59.101 252.439,61.678 258.800 C 63.540 263.394,64.357 265.064,67.154 269.999 C 68.339 272.090,69.818 274.737,70.440 275.882 C 71.910 278.589,77.195 286.347,80.193 290.200 C 80.535 290.640,81.524 291.953,82.390 293.117 C 88.305 301.067,101.988 314.043,112.003 321.198 C 115.514 323.707,120.942 327.200,121.329 327.200 C 121.564 327.200,122.216 327.621,122.778 328.136 C 123.340 328.651,124.430 329.313,125.200 329.606 C 125.970 329.900,127.050 330.430,127.600 330.786 C 129.862 332.247,143.105 338.400,143.989 338.400 C 144.238 338.400,145.107 338.738,145.921 339.150 C 151.536 341.999,168.188 346.061,180.575 347.603 C 192.968 349.147,216.308 348.292,223.997 346.014 C 224.766 345.786,225.936 345.601,226.597 345.601 C 227.259 345.602,229.060 345.247,230.600 344.812 C 232.140 344.377,235.560 343.488,238.200 342.837 C 240.840 342.185,244.440 341.116,246.200 340.461 C 253.873 337.606,255.063 337.130,257.756 335.839 C 259.320 335.089,262.310 333.666,264.400 332.676 C 266.490 331.687,269.370 330.203,270.800 329.378 C 272.230 328.554,274.210 327.456,275.200 326.938 C 280.570 324.131,291.578 315.620,300.258 307.566 C 305.110 303.063,317.200 289.644,317.200 288.761 C 317.200 288.550,317.875 287.489,318.700 286.405 C 319.525 285.320,321.087 283.031,322.170 281.317 C 323.254 279.602,324.543 277.570,325.036 276.800 C 328.757 270.981,335.600 257.074,335.600 255.328 C 335.600 255.131,335.960 254.263,336.400 253.400 C 336.840 252.537,337.200 251.534,337.200 251.171 C 337.200 250.808,337.722 249.360,338.359 247.954 C 341.180 241.732,342.578 243.611,340.625 251.000 C 337.856 261.473,336.273 266.583,334.304 271.400 C 333.854 272.500,333.060 274.643,332.540 276.163 C 332.019 277.683,331.445 279.123,331.263 279.363 C 331.082 279.603,330.689 280.430,330.389 281.200 C 329.656 283.084,325.874 289.987,323.814 293.200 C 322.897 294.630,322.035 296.100,321.899 296.466 C 321.586 297.307,315.852 305.775,314.450 307.467 C 313.873 308.164,312.770 309.591,312.000 310.638 C 309.981 313.385,308.993 314.517,305.317 318.299 C 303.511 320.157,301.171 322.636,300.117 323.807 C 297.268 326.971,288.022 334.804,283.864 337.576 C 283.389 337.892,282.614 338.491,282.143 338.905 C 281.671 339.320,280.751 339.961,280.097 340.330 C 278.912 340.998,277.161 342.091,272.832 344.863 C 267.526 348.262,259.256 352.371,252.200 355.114 C 239.466 360.066,234.745 361.376,220.200 363.997 C 209.879 365.857,182.417 365.995,176.000 364.218 C 174.790 363.884,173.192 363.607,172.450 363.605 C 167.764 363.588,147.085 357.427,141.000 354.235 C 140.340 353.888,139.609 353.604,139.376 353.602 C 138.940 353.600,133.784 351.225,132.000 350.205 C 131.450 349.890,130.190 349.206,129.200 348.683 C 112.363 339.801,98.081 328.064,83.827 311.400 C 83.263 310.740,82.801 310.089,82.800 309.954 C 82.800 309.819,82.256 309.099,81.592 308.354 C 79.198 305.671,72.879 295.892,69.785 290.082 C 64.844 280.804,64.067 279.083,60.812 270.200 C 58.441 263.731,55.976 255.209,55.143 250.600 C 54.944 249.500,54.606 247.832,54.391 246.894 C 53.641 243.621,53.864 241.125,54.892 241.272 C 55.598 241.373,55.884 241.817,56.265 243.400 M392.400 244.600 C 392.400 247.733,392.337 248.000,391.600 248.000 C 390.862 248.000,390.800 248.267,390.800 251.429 C 390.800 254.480,390.877 254.844,391.500 254.724 C 392.292 254.571,392.282 254.617,392.350 250.763 C 392.392 248.356,392.513 247.896,393.144 247.730 C 394.340 247.418,394.413 241.200,393.221 241.200 C 392.457 241.200,392.400 241.438,392.400 244.600 M389.200 257.335 C 389.200 259.197,389.306 259.514,389.900 259.426 C 390.457 259.345,390.600 258.925,390.600 257.367 C 390.600 255.822,390.453 255.383,389.900 255.276 C 389.302 255.161,389.200 255.461,389.200 257.335 M387.403 262.382 C 387.253 263.471,387.230 264.525,387.352 264.723 C 387.475 264.921,387.131 265.285,386.587 265.533 C 385.778 265.902,385.600 266.270,385.600 267.577 C 385.600 268.762,385.395 269.282,384.800 269.600 C 384.208 269.917,384.000 270.438,384.000 271.600 C 384.000 272.762,383.792 273.283,383.200 273.600 C 382.741 273.846,382.400 274.438,382.400 274.988 C 382.400 276.375,381.669 278.090,381.201 277.800 C 380.955 277.649,380.800 278.260,380.800 279.376 C 380.800 280.933,380.917 281.200,381.600 281.200 C 382.263 281.200,382.400 280.933,382.400 279.647 C 382.400 278.472,382.580 278.046,383.139 277.900 C 383.628 277.772,383.961 277.198,384.122 276.204 C 384.256 275.377,384.672 274.362,385.046 273.949 C 385.482 273.467,385.717 272.563,385.700 271.433 C 385.677 269.892,385.795 269.638,386.637 269.427 C 387.430 269.228,387.600 268.932,387.600 267.755 C 387.600 266.932,387.939 265.895,388.400 265.309 C 389.569 263.823,389.426 260.400,388.195 260.400 C 387.875 260.400,387.570 261.163,387.403 262.382 M379.195 282.671 C 379.186 284.411,378.763 285.600,378.153 285.600 C 377.772 285.600,377.600 286.110,377.600 287.237 C 377.600 288.538,377.436 288.918,376.800 289.084 C 376.270 289.223,376.000 289.630,376.000 290.289 C 376.000 291.033,376.160 291.224,376.633 291.043 C 376.981 290.909,377.341 290.800,377.433 290.800 C 377.525 290.800,377.600 290.339,377.600 289.776 C 377.600 289.127,377.763 288.853,378.045 289.028 C 378.634 289.392,379.186 288.466,379.194 287.100 C 379.198 286.398,379.414 286.000,379.792 286.000 C 381.045 286.000,381.146 281.910,379.900 281.674 C 379.368 281.573,379.199 281.813,379.195 282.671 M374.267 292.667 C 374.120 292.813,374.000 293.263,374.000 293.667 C 374.000 294.942,375.692 294.442,375.918 293.100 C 376.035 292.403,374.843 292.090,374.267 292.667 M372.529 296.053 C 372.381 296.797,371.978 297.385,371.539 297.500 C 371.039 297.631,370.800 298.061,370.800 298.833 C 370.800 299.562,370.513 300.126,370.000 300.400 C 369.533 300.650,369.200 301.238,369.200 301.811 C 369.200 302.360,368.847 303.013,368.400 303.293 C 367.874 303.622,367.600 304.226,367.600 305.059 C 367.600 306.128,367.724 306.293,368.400 306.116 C 368.840 306.001,369.200 305.577,369.200 305.173 C 369.200 304.770,369.481 304.282,369.825 304.090 C 370.391 303.773,370.685 303.039,370.769 301.727 C 370.786 301.467,371.160 301.140,371.600 301.000 C 372.102 300.841,372.400 300.395,372.400 299.802 C 372.400 299.282,372.642 298.616,372.937 298.320 C 373.852 297.405,374.408 296.087,374.156 295.429 C 373.747 294.363,372.794 294.729,372.529 296.053 M365.777 307.677 C 365.616 308.185,365.151 308.835,364.743 309.123 C 364.334 309.410,364.000 309.884,364.000 310.176 C 364.000 310.468,363.640 310.801,363.200 310.916 C 362.382 311.130,362.109 312.173,362.764 312.578 C 363.348 312.939,364.368 312.382,364.152 311.819 C 364.041 311.530,364.327 311.208,364.807 311.082 C 365.276 310.960,365.753 310.503,365.867 310.067 C 365.981 309.631,366.419 309.184,366.840 309.074 C 367.379 308.933,367.564 308.596,367.464 307.937 C 367.272 306.678,366.147 306.505,365.777 307.677 M361.026 313.586 C 360.963 313.704,360.792 314.295,360.648 314.900 C 360.503 315.505,360.118 316.000,359.792 316.000 C 359.425 316.000,359.200 316.385,359.200 317.014 C 359.200 317.904,359.298 317.976,360.000 317.600 C 360.440 317.365,360.800 316.908,360.800 316.586 C 360.800 316.264,361.052 316.000,361.361 316.000 C 361.771 316.000,362.800 314.160,362.800 313.426 C 362.800 313.256,361.122 313.407,361.026 313.586 M357.600 318.367 C 357.600 318.858,357.858 319.200,358.229 319.200 C 358.602 319.200,358.806 318.928,358.729 318.533 C 358.535 317.530,357.600 317.392,357.600 318.367 M356.070 320.890 C 355.812 321.148,355.600 321.594,355.600 321.880 C 355.600 322.166,355.330 322.400,355.000 322.400 C 354.670 322.400,354.378 322.580,354.350 322.800 C 354.322 323.020,354.278 323.425,354.250 323.700 C 354.223 323.975,353.814 324.255,353.343 324.322 C 352.705 324.413,352.540 324.649,352.696 325.245 C 352.826 325.741,353.126 325.961,353.485 325.823 C 353.804 325.700,354.135 325.600,354.220 325.600 C 354.305 325.600,354.274 325.338,354.151 325.017 C 354.002 324.628,354.272 324.347,354.961 324.174 C 355.529 324.031,355.896 323.755,355.775 323.559 C 355.654 323.363,356.015 322.994,356.577 322.737 C 357.703 322.224,357.885 321.534,357.070 320.858 C 356.684 320.538,356.414 320.546,356.070 320.890 M351.115 327.200 C 351.018 327.860,350.984 328.400,351.040 328.400 C 351.096 328.400,351.411 327.860,351.740 327.200 C 352.215 326.249,352.230 326.000,351.815 326.000 C 351.527 326.000,351.212 326.540,351.115 327.200 M349.200 329.837 C 349.200 330.533,348.978 330.800,348.400 330.800 C 347.637 330.800,347.265 331.932,347.839 332.506 C 348.251 332.918,349.200 332.344,349.200 331.683 C 349.200 331.336,349.569 330.658,350.021 330.178 L 350.842 329.304 350.021 329.090 C 349.361 328.917,349.200 329.064,349.200 329.837 M345.716 333.200 C 345.601 333.640,345.253 334.000,344.943 334.000 C 344.634 334.000,344.209 334.450,344.000 335.000 C 343.791 335.550,343.345 336.000,343.010 336.000 C 342.667 336.000,342.400 336.350,342.400 336.800 C 342.400 337.333,342.133 337.600,341.600 337.600 C 341.067 337.600,340.800 337.867,340.800 338.400 C 340.800 338.840,341.025 339.197,341.300 339.194 C 342.034 339.185,342.889 338.565,342.734 338.155 C 342.660 337.960,343.005 337.742,343.500 337.672 C 344.078 337.590,344.400 337.268,344.400 336.772 C 344.400 336.080,344.823 335.814,345.700 335.953 C 345.865 335.979,345.979 335.865,345.953 335.700 C 345.825 334.891,346.053 334.400,346.557 334.400 C 347.081 334.400,347.600 333.588,347.600 332.767 C 347.600 332.022,345.923 332.407,345.716 333.200 M339.475 339.458 C 338.925 340.008,339.211 340.857,339.900 340.724 C 340.285 340.650,340.600 340.337,340.600 340.028 C 340.600 339.396,339.894 339.039,339.475 339.458 M337.600 341.437 C 337.600 341.788,337.240 342.169,336.800 342.284 C 336.357 342.400,336.000 342.830,336.000 343.247 C 336.000 343.725,335.717 344.000,335.227 344.000 C 334.802 344.000,334.340 344.360,334.200 344.800 C 334.060 345.240,333.721 345.600,333.445 345.600 C 333.170 345.600,332.570 346.005,332.112 346.500 C 330.885 347.828,329.184 349.200,328.766 349.200 C 328.565 349.200,328.400 349.440,328.400 349.732 C 328.400 350.025,327.956 350.502,327.414 350.793 C 326.871 351.083,326.510 351.455,326.611 351.618 C 326.774 351.882,325.853 352.472,325.133 352.565 C 324.572 352.638,324.311 353.191,324.548 353.808 C 324.700 354.204,324.988 354.330,325.297 354.137 C 325.574 353.964,326.057 353.784,326.370 353.736 C 326.684 353.689,327.098 353.369,327.290 353.025 C 327.482 352.681,327.991 352.400,328.420 352.400 C 328.867 352.400,329.200 352.128,329.200 351.763 C 329.200 351.412,329.554 351.033,329.987 350.919 C 330.419 350.806,330.875 350.392,331.000 350.000 C 331.125 349.608,331.581 349.194,332.013 349.081 C 332.446 348.967,332.800 348.588,332.800 348.237 C 332.800 347.887,333.070 347.600,333.400 347.600 C 333.730 347.600,334.000 347.447,334.000 347.259 C 334.000 346.681,336.374 344.400,336.976 344.400 C 337.288 344.400,337.602 343.995,337.672 343.500 C 337.742 343.005,338.032 342.600,338.315 342.600 C 338.920 342.600,339.634 341.579,339.350 341.119 C 338.987 340.532,337.600 340.784,337.600 341.437 M321.800 355.019 C 321.140 355.566,320.234 356.370,319.786 356.806 C 319.338 357.243,318.752 357.600,318.483 357.600 C 318.100 357.600,318.102 357.775,318.493 358.400 C 318.768 358.840,319.303 359.200,319.682 359.200 C 320.061 359.200,320.565 358.840,320.800 358.400 C 321.035 357.960,321.497 357.600,321.827 357.600 C 322.156 357.600,322.543 357.285,322.686 356.900 C 322.830 356.515,323.274 355.965,323.674 355.677 C 324.073 355.390,324.400 354.895,324.400 354.577 C 324.400 353.696,323.138 353.911,321.800 355.019 M315.884 360.000 C 315.759 360.479,315.338 360.800,314.837 360.800 C 314.267 360.800,314.000 361.055,314.000 361.600 C 314.000 362.122,313.733 362.400,313.233 362.400 C 312.041 362.400,311.200 362.831,311.200 363.443 C 311.200 363.749,310.885 364.003,310.500 364.006 C 309.400 364.016,308.749 364.602,309.029 365.332 C 309.374 366.230,309.807 366.173,310.810 365.100 C 311.273 364.605,311.955 364.182,312.326 364.159 C 314.314 364.039,314.477 363.977,314.263 363.420 C 314.130 363.073,314.344 362.745,314.800 362.600 C 315.217 362.467,315.657 362.052,315.776 361.676 C 315.895 361.300,316.388 360.814,316.870 360.596 C 318.142 360.022,318.266 359.200,317.080 359.200 C 316.430 359.200,316.022 359.473,315.884 360.000 M306.000 366.800 C 306.000 367.448,305.733 367.600,304.600 367.600 C 302.986 367.600,302.783 368.081,304.137 368.698 C 305.175 369.171,305.730 368.949,306.114 367.907 C 306.284 367.446,306.609 367.300,307.085 367.470 C 307.478 367.612,307.667 367.580,307.503 367.401 C 307.340 367.221,307.407 366.832,307.652 366.537 C 308.006 366.111,307.881 366.000,307.049 366.000 C 306.267 366.000,306.000 366.203,306.000 366.800 M300.800 369.996 C 300.800 370.599,301.041 370.771,301.800 370.708 C 302.462 370.654,302.800 370.384,302.800 369.913 C 302.800 369.419,302.493 369.200,301.800 369.200 C 301.069 369.200,300.800 369.414,300.800 369.996 M297.600 371.814 C 297.600 372.683,297.708 372.770,298.353 372.425 C 299.596 371.760,299.734 370.800,298.587 370.800 C 297.797 370.800,297.600 371.002,297.600 371.814 M292.800 374.987 C 292.800 375.345,293.035 375.485,293.400 375.345 C 293.730 375.218,294.000 374.954,294.000 374.757 C 294.000 374.561,293.730 374.400,293.400 374.400 C 293.070 374.400,292.800 374.664,292.800 374.987 M289.600 376.600 C 290.211 377.336,290.651 377.364,290.913 376.684 C 291.038 376.357,290.742 376.137,290.107 376.084 C 289.257 376.014,289.179 376.093,289.600 376.600 M281.341 379.474 C 281.688 379.821,283.572 379.970,283.760 379.665 C 283.850 379.519,283.290 379.364,282.516 379.321 C 281.742 379.277,281.213 379.346,281.341 379.474 M277.606 381.100 C 277.620 381.777,278.340 382.484,278.755 382.228 C 279.495 381.770,279.254 380.800,278.400 380.800 C 277.960 380.800,277.603 380.935,277.606 381.100 M122.000 382.771 C 122.000 384.413,125.299 384.908,125.528 383.300 C 125.644 382.479,125.495 382.400,123.828 382.400 C 122.823 382.400,122.000 382.567,122.000 382.771 M274.000 383.120 C 274.000 383.619,274.303 383.840,274.987 383.840 C 275.529 383.840,275.891 383.758,275.790 383.657 C 275.689 383.556,275.807 383.232,276.052 382.937 C 276.409 382.507,276.248 382.400,275.249 382.400 C 274.313 382.400,274.000 382.580,274.000 383.120 M125.866 384.300 C 125.692 384.587,126.565 385.614,126.988 385.619 C 127.100 385.621,127.432 385.714,127.727 385.827 C 128.392 386.083,130.400 385.351,130.400 384.853 C 130.400 384.081,126.301 383.582,125.866 384.300 M269.423 384.916 C 269.532 385.199,270.021 385.451,270.510 385.475 C 271.000 385.499,271.174 385.431,270.898 385.325 C 270.621 385.219,270.497 384.967,270.621 384.766 C 270.745 384.565,270.482 384.400,270.036 384.400 C 269.539 384.400,269.302 384.599,269.423 384.916 M131.400 386.022 C 130.740 386.178,130.436 386.327,130.724 386.353 C 131.012 386.379,131.155 386.550,131.041 386.733 C 130.928 386.917,131.052 387.086,131.318 387.109 C 131.583 387.132,132.363 387.260,133.051 387.392 C 133.959 387.567,134.365 387.467,134.533 387.029 C 134.925 386.008,133.458 385.536,131.400 386.022 M264.400 386.256 C 264.400 386.830,265.769 387.457,266.654 387.288 C 268.286 386.976,267.791 386.000,266.000 386.000 C 265.120 386.000,264.400 386.115,264.400 386.256 M137.206 387.900 C 137.216 388.380,137.861 389.268,138.200 389.268 C 138.539 389.268,139.184 388.380,139.194 387.900 C 139.197 387.735,138.750 387.600,138.200 387.600 C 137.650 387.600,137.203 387.735,137.206 387.900 " stroke="none" fill="#fbd10d" fill-rule="evenodd"></path></g></svg>